<?xml version="1.0" encoding="utf-8" standalone="no"?>
<!DOCTYPE svg PUBLIC "-//W3C//DTD SVG 1.1//EN"
  "http://www.w3.org/Graphics/SVG/1.1/DTD/svg11.dtd">
<svg xmlns:xlink="http://www.w3.org/1999/xlink" width="1080pt" height="720pt" viewBox="0 0 1080 720" xmlns="http://www.w3.org/2000/svg" version="1.1">
 <metadata>
  <rdf:RDF xmlns:dc="http://purl.org/dc/elements/1.1/" xmlns:cc="http://creativecommons.org/ns#" xmlns:rdf="http://www.w3.org/1999/02/22-rdf-syntax-ns#">
   <cc:Work>
    <dc:type rdf:resource="http://purl.org/dc/dcmitype/StillImage"/>
    <dc:date>2024-05-20T20:10:15.575457</dc:date>
    <dc:format>image/svg+xml</dc:format>
    <dc:creator>
     <cc:Agent>
      <dc:title>Matplotlib v3.8.0, https://matplotlib.org/</dc:title>
     </cc:Agent>
    </dc:creator>
   </cc:Work>
  </rdf:RDF>
 </metadata>
 <defs>
  <style type="text/css">*{stroke-linejoin: round; stroke-linecap: butt}</style>
 </defs>
 <g id="figure_1">
  <g id="patch_1">
   <path d="M 0 720 
L 1080 720 
L 1080 0 
L 0 0 
z
" style="fill: #ffffff"/>
  </g>
  <g id="axes_1">
   <g id="patch_2">
    <path d="M 135 317.106383 
L 972 317.106383 
L 972 72 
L 135 72 
z
" style="fill: #ffffff"/>
   </g>
   <g id="matplotlib.axis_1">
    <g id="xtick_1">
     <g id="line2d_1">
      <path d="M 173.045455 317.106383 
L 173.045455 72 
" clip-path="url(#p9b02245c59)" style="fill: none; stroke: #b0b0b0; stroke-width: 0.8; stroke-linecap: square"/>
     </g>
     <g id="line2d_2">
      <defs>
       <path id="m1a3b853ad2" d="M 0 0 
L 0 3.5 
" style="stroke: #000000; stroke-width: 0.8"/>
      </defs>
      <g>
       <use xlink:href="#m1a3b853ad2" x="173.045455" y="317.106383" style="stroke: #000000; stroke-width: 0.8"/>
      </g>
     </g>
     <g id="text_1">
      <!-- 0 -->
      <g transform="translate(169.864205 331.70482) scale(0.1 -0.1)">
       <defs>
        <path id="DejaVuSans-30" d="M 2034 4250 
Q 1547 4250 1301 3770 
Q 1056 3291 1056 2328 
Q 1056 1369 1301 889 
Q 1547 409 2034 409 
Q 2525 409 2770 889 
Q 3016 1369 3016 2328 
Q 3016 3291 2770 3770 
Q 2525 4250 2034 4250 
z
M 2034 4750 
Q 2819 4750 3233 4129 
Q 3647 3509 3647 2328 
Q 3647 1150 3233 529 
Q 2819 -91 2034 -91 
Q 1250 -91 836 529 
Q 422 1150 422 2328 
Q 422 3509 836 4129 
Q 1250 4750 2034 4750 
z
" transform="scale(0.015625)"/>
       </defs>
       <use xlink:href="#DejaVuSans-30"/>
      </g>
     </g>
    </g>
    <g id="xtick_2">
     <g id="line2d_3">
      <path d="M 288.685134 317.106383 
L 288.685134 72 
" clip-path="url(#p9b02245c59)" style="fill: none; stroke: #b0b0b0; stroke-width: 0.8; stroke-linecap: square"/>
     </g>
     <g id="line2d_4">
      <g>
       <use xlink:href="#m1a3b853ad2" x="288.685134" y="317.106383" style="stroke: #000000; stroke-width: 0.8"/>
      </g>
     </g>
     <g id="text_2">
      <!-- 50 -->
      <g transform="translate(282.322634 331.70482) scale(0.1 -0.1)">
       <defs>
        <path id="DejaVuSans-35" d="M 691 4666 
L 3169 4666 
L 3169 4134 
L 1269 4134 
L 1269 2991 
Q 1406 3038 1543 3061 
Q 1681 3084 1819 3084 
Q 2600 3084 3056 2656 
Q 3513 2228 3513 1497 
Q 3513 744 3044 326 
Q 2575 -91 1722 -91 
Q 1428 -91 1123 -41 
Q 819 9 494 109 
L 494 744 
Q 775 591 1075 516 
Q 1375 441 1709 441 
Q 2250 441 2565 725 
Q 2881 1009 2881 1497 
Q 2881 1984 2565 2268 
Q 2250 2553 1709 2553 
Q 1456 2553 1204 2497 
Q 953 2441 691 2322 
L 691 4666 
z
" transform="scale(0.015625)"/>
       </defs>
       <use xlink:href="#DejaVuSans-35"/>
       <use xlink:href="#DejaVuSans-30" x="63.623047"/>
      </g>
     </g>
    </g>
    <g id="xtick_3">
     <g id="line2d_5">
      <path d="M 404.324813 317.106383 
L 404.324813 72 
" clip-path="url(#p9b02245c59)" style="fill: none; stroke: #b0b0b0; stroke-width: 0.8; stroke-linecap: square"/>
     </g>
     <g id="line2d_6">
      <g>
       <use xlink:href="#m1a3b853ad2" x="404.324813" y="317.106383" style="stroke: #000000; stroke-width: 0.8"/>
      </g>
     </g>
     <g id="text_3">
      <!-- 100 -->
      <g transform="translate(394.781063 331.70482) scale(0.1 -0.1)">
       <defs>
        <path id="DejaVuSans-31" d="M 794 531 
L 1825 531 
L 1825 4091 
L 703 3866 
L 703 4441 
L 1819 4666 
L 2450 4666 
L 2450 531 
L 3481 531 
L 3481 0 
L 794 0 
L 794 531 
z
" transform="scale(0.015625)"/>
       </defs>
       <use xlink:href="#DejaVuSans-31"/>
       <use xlink:href="#DejaVuSans-30" x="63.623047"/>
       <use xlink:href="#DejaVuSans-30" x="127.246094"/>
      </g>
     </g>
    </g>
    <g id="xtick_4">
     <g id="line2d_7">
      <path d="M 519.964493 317.106383 
L 519.964493 72 
" clip-path="url(#p9b02245c59)" style="fill: none; stroke: #b0b0b0; stroke-width: 0.8; stroke-linecap: square"/>
     </g>
     <g id="line2d_8">
      <g>
       <use xlink:href="#m1a3b853ad2" x="519.964493" y="317.106383" style="stroke: #000000; stroke-width: 0.8"/>
      </g>
     </g>
     <g id="text_4">
      <!-- 150 -->
      <g transform="translate(510.420743 331.70482) scale(0.1 -0.1)">
       <use xlink:href="#DejaVuSans-31"/>
       <use xlink:href="#DejaVuSans-35" x="63.623047"/>
       <use xlink:href="#DejaVuSans-30" x="127.246094"/>
      </g>
     </g>
    </g>
    <g id="xtick_5">
     <g id="line2d_9">
      <path d="M 635.604172 317.106383 
L 635.604172 72 
" clip-path="url(#p9b02245c59)" style="fill: none; stroke: #b0b0b0; stroke-width: 0.8; stroke-linecap: square"/>
     </g>
     <g id="line2d_10">
      <g>
       <use xlink:href="#m1a3b853ad2" x="635.604172" y="317.106383" style="stroke: #000000; stroke-width: 0.8"/>
      </g>
     </g>
     <g id="text_5">
      <!-- 200 -->
      <g transform="translate(626.060422 331.70482) scale(0.1 -0.1)">
       <defs>
        <path id="DejaVuSans-32" d="M 1228 531 
L 3431 531 
L 3431 0 
L 469 0 
L 469 531 
Q 828 903 1448 1529 
Q 2069 2156 2228 2338 
Q 2531 2678 2651 2914 
Q 2772 3150 2772 3378 
Q 2772 3750 2511 3984 
Q 2250 4219 1831 4219 
Q 1534 4219 1204 4116 
Q 875 4013 500 3803 
L 500 4441 
Q 881 4594 1212 4672 
Q 1544 4750 1819 4750 
Q 2544 4750 2975 4387 
Q 3406 4025 3406 3419 
Q 3406 3131 3298 2873 
Q 3191 2616 2906 2266 
Q 2828 2175 2409 1742 
Q 1991 1309 1228 531 
z
" transform="scale(0.015625)"/>
       </defs>
       <use xlink:href="#DejaVuSans-32"/>
       <use xlink:href="#DejaVuSans-30" x="63.623047"/>
       <use xlink:href="#DejaVuSans-30" x="127.246094"/>
      </g>
     </g>
    </g>
    <g id="xtick_6">
     <g id="line2d_11">
      <path d="M 751.243852 317.106383 
L 751.243852 72 
" clip-path="url(#p9b02245c59)" style="fill: none; stroke: #b0b0b0; stroke-width: 0.8; stroke-linecap: square"/>
     </g>
     <g id="line2d_12">
      <g>
       <use xlink:href="#m1a3b853ad2" x="751.243852" y="317.106383" style="stroke: #000000; stroke-width: 0.8"/>
      </g>
     </g>
     <g id="text_6">
      <!-- 250 -->
      <g transform="translate(741.700102 331.70482) scale(0.1 -0.1)">
       <use xlink:href="#DejaVuSans-32"/>
       <use xlink:href="#DejaVuSans-35" x="63.623047"/>
       <use xlink:href="#DejaVuSans-30" x="127.246094"/>
      </g>
     </g>
    </g>
    <g id="xtick_7">
     <g id="line2d_13">
      <path d="M 866.883531 317.106383 
L 866.883531 72 
" clip-path="url(#p9b02245c59)" style="fill: none; stroke: #b0b0b0; stroke-width: 0.8; stroke-linecap: square"/>
     </g>
     <g id="line2d_14">
      <g>
       <use xlink:href="#m1a3b853ad2" x="866.883531" y="317.106383" style="stroke: #000000; stroke-width: 0.8"/>
      </g>
     </g>
     <g id="text_7">
      <!-- 300 -->
      <g transform="translate(857.339781 331.70482) scale(0.1 -0.1)">
       <defs>
        <path id="DejaVuSans-33" d="M 2597 2516 
Q 3050 2419 3304 2112 
Q 3559 1806 3559 1356 
Q 3559 666 3084 287 
Q 2609 -91 1734 -91 
Q 1441 -91 1130 -33 
Q 819 25 488 141 
L 488 750 
Q 750 597 1062 519 
Q 1375 441 1716 441 
Q 2309 441 2620 675 
Q 2931 909 2931 1356 
Q 2931 1769 2642 2001 
Q 2353 2234 1838 2234 
L 1294 2234 
L 1294 2753 
L 1863 2753 
Q 2328 2753 2575 2939 
Q 2822 3125 2822 3475 
Q 2822 3834 2567 4026 
Q 2313 4219 1838 4219 
Q 1578 4219 1281 4162 
Q 984 4106 628 3988 
L 628 4550 
Q 988 4650 1302 4700 
Q 1616 4750 1894 4750 
Q 2613 4750 3031 4423 
Q 3450 4097 3450 3541 
Q 3450 3153 3228 2886 
Q 3006 2619 2597 2516 
z
" transform="scale(0.015625)"/>
       </defs>
       <use xlink:href="#DejaVuSans-33"/>
       <use xlink:href="#DejaVuSans-30" x="63.623047"/>
       <use xlink:href="#DejaVuSans-30" x="127.246094"/>
      </g>
     </g>
    </g>
    <g id="text_8">
     <!-- frame -->
     <g transform="translate(528.294844 350.701852) scale(0.17 -0.17)">
      <defs>
       <path id="DejaVuSans-66" d="M 2375 4863 
L 2375 4384 
L 1825 4384 
Q 1516 4384 1395 4259 
Q 1275 4134 1275 3809 
L 1275 3500 
L 2222 3500 
L 2222 3053 
L 1275 3053 
L 1275 0 
L 697 0 
L 697 3053 
L 147 3053 
L 147 3500 
L 697 3500 
L 697 3744 
Q 697 4328 969 4595 
Q 1241 4863 1831 4863 
L 2375 4863 
z
" transform="scale(0.015625)"/>
       <path id="DejaVuSans-72" d="M 2631 2963 
Q 2534 3019 2420 3045 
Q 2306 3072 2169 3072 
Q 1681 3072 1420 2755 
Q 1159 2438 1159 1844 
L 1159 0 
L 581 0 
L 581 3500 
L 1159 3500 
L 1159 2956 
Q 1341 3275 1631 3429 
Q 1922 3584 2338 3584 
Q 2397 3584 2469 3576 
Q 2541 3569 2628 3553 
L 2631 2963 
z
" transform="scale(0.015625)"/>
       <path id="DejaVuSans-61" d="M 2194 1759 
Q 1497 1759 1228 1600 
Q 959 1441 959 1056 
Q 959 750 1161 570 
Q 1363 391 1709 391 
Q 2188 391 2477 730 
Q 2766 1069 2766 1631 
L 2766 1759 
L 2194 1759 
z
M 3341 1997 
L 3341 0 
L 2766 0 
L 2766 531 
Q 2569 213 2275 61 
Q 1981 -91 1556 -91 
Q 1019 -91 701 211 
Q 384 513 384 1019 
Q 384 1609 779 1909 
Q 1175 2209 1959 2209 
L 2766 2209 
L 2766 2266 
Q 2766 2663 2505 2880 
Q 2244 3097 1772 3097 
Q 1472 3097 1187 3025 
Q 903 2953 641 2809 
L 641 3341 
Q 956 3463 1253 3523 
Q 1550 3584 1831 3584 
Q 2591 3584 2966 3190 
Q 3341 2797 3341 1997 
z
" transform="scale(0.015625)"/>
       <path id="DejaVuSans-6d" d="M 3328 2828 
Q 3544 3216 3844 3400 
Q 4144 3584 4550 3584 
Q 5097 3584 5394 3201 
Q 5691 2819 5691 2113 
L 5691 0 
L 5113 0 
L 5113 2094 
Q 5113 2597 4934 2840 
Q 4756 3084 4391 3084 
Q 3944 3084 3684 2787 
Q 3425 2491 3425 1978 
L 3425 0 
L 2847 0 
L 2847 2094 
Q 2847 2600 2669 2842 
Q 2491 3084 2119 3084 
Q 1678 3084 1418 2786 
Q 1159 2488 1159 1978 
L 1159 0 
L 581 0 
L 581 3500 
L 1159 3500 
L 1159 2956 
Q 1356 3278 1631 3431 
Q 1906 3584 2284 3584 
Q 2666 3584 2933 3390 
Q 3200 3197 3328 2828 
z
" transform="scale(0.015625)"/>
       <path id="DejaVuSans-65" d="M 3597 1894 
L 3597 1613 
L 953 1613 
Q 991 1019 1311 708 
Q 1631 397 2203 397 
Q 2534 397 2845 478 
Q 3156 559 3463 722 
L 3463 178 
Q 3153 47 2828 -22 
Q 2503 -91 2169 -91 
Q 1331 -91 842 396 
Q 353 884 353 1716 
Q 353 2575 817 3079 
Q 1281 3584 2069 3584 
Q 2775 3584 3186 3129 
Q 3597 2675 3597 1894 
z
M 3022 2063 
Q 3016 2534 2758 2815 
Q 2500 3097 2075 3097 
Q 1594 3097 1305 2825 
Q 1016 2553 972 2059 
L 3022 2063 
z
" transform="scale(0.015625)"/>
      </defs>
      <use xlink:href="#DejaVuSans-66"/>
      <use xlink:href="#DejaVuSans-72" x="35.205078"/>
      <use xlink:href="#DejaVuSans-61" x="76.318359"/>
      <use xlink:href="#DejaVuSans-6d" x="137.597656"/>
      <use xlink:href="#DejaVuSans-65" x="235.009766"/>
     </g>
    </g>
   </g>
   <g id="matplotlib.axis_2">
    <g id="ytick_1">
     <g id="line2d_15">
      <path d="M 135 314.679587 
L 972 314.679587 
" clip-path="url(#p9b02245c59)" style="fill: none; stroke: #b0b0b0; stroke-width: 0.8; stroke-linecap: square"/>
     </g>
     <g id="line2d_16">
      <defs>
       <path id="m599a484e78" d="M 0 0 
L -3.5 0 
" style="stroke: #000000; stroke-width: 0.8"/>
      </defs>
      <g>
       <use xlink:href="#m599a484e78" x="135" y="314.679587" style="stroke: #000000; stroke-width: 0.8"/>
      </g>
     </g>
     <g id="text_9">
      <!-- 0 -->
      <g transform="translate(121.6375 318.478806) scale(0.1 -0.1)">
       <use xlink:href="#DejaVuSans-30"/>
      </g>
     </g>
    </g>
    <g id="ytick_2">
     <g id="line2d_17">
      <path d="M 135 266.14367 
L 972 266.14367 
" clip-path="url(#p9b02245c59)" style="fill: none; stroke: #b0b0b0; stroke-width: 0.8; stroke-linecap: square"/>
     </g>
     <g id="line2d_18">
      <g>
       <use xlink:href="#m599a484e78" x="135" y="266.14367" style="stroke: #000000; stroke-width: 0.8"/>
      </g>
     </g>
     <g id="text_10">
      <!-- 2 -->
      <g transform="translate(121.6375 269.942888) scale(0.1 -0.1)">
       <use xlink:href="#DejaVuSans-32"/>
      </g>
     </g>
    </g>
    <g id="ytick_3">
     <g id="line2d_19">
      <path d="M 135 217.607752 
L 972 217.607752 
" clip-path="url(#p9b02245c59)" style="fill: none; stroke: #b0b0b0; stroke-width: 0.8; stroke-linecap: square"/>
     </g>
     <g id="line2d_20">
      <g>
       <use xlink:href="#m599a484e78" x="135" y="217.607752" style="stroke: #000000; stroke-width: 0.8"/>
      </g>
     </g>
     <g id="text_11">
      <!-- 4 -->
      <g transform="translate(121.6375 221.406971) scale(0.1 -0.1)">
       <defs>
        <path id="DejaVuSans-34" d="M 2419 4116 
L 825 1625 
L 2419 1625 
L 2419 4116 
z
M 2253 4666 
L 3047 4666 
L 3047 1625 
L 3713 1625 
L 3713 1100 
L 3047 1100 
L 3047 0 
L 2419 0 
L 2419 1100 
L 313 1100 
L 313 1709 
L 2253 4666 
z
" transform="scale(0.015625)"/>
       </defs>
       <use xlink:href="#DejaVuSans-34"/>
      </g>
     </g>
    </g>
    <g id="ytick_4">
     <g id="line2d_21">
      <path d="M 135 169.071835 
L 972 169.071835 
" clip-path="url(#p9b02245c59)" style="fill: none; stroke: #b0b0b0; stroke-width: 0.8; stroke-linecap: square"/>
     </g>
     <g id="line2d_22">
      <g>
       <use xlink:href="#m599a484e78" x="135" y="169.071835" style="stroke: #000000; stroke-width: 0.8"/>
      </g>
     </g>
     <g id="text_12">
      <!-- 6 -->
      <g transform="translate(121.6375 172.871054) scale(0.1 -0.1)">
       <defs>
        <path id="DejaVuSans-36" d="M 2113 2584 
Q 1688 2584 1439 2293 
Q 1191 2003 1191 1497 
Q 1191 994 1439 701 
Q 1688 409 2113 409 
Q 2538 409 2786 701 
Q 3034 994 3034 1497 
Q 3034 2003 2786 2293 
Q 2538 2584 2113 2584 
z
M 3366 4563 
L 3366 3988 
Q 3128 4100 2886 4159 
Q 2644 4219 2406 4219 
Q 1781 4219 1451 3797 
Q 1122 3375 1075 2522 
Q 1259 2794 1537 2939 
Q 1816 3084 2150 3084 
Q 2853 3084 3261 2657 
Q 3669 2231 3669 1497 
Q 3669 778 3244 343 
Q 2819 -91 2113 -91 
Q 1303 -91 875 529 
Q 447 1150 447 2328 
Q 447 3434 972 4092 
Q 1497 4750 2381 4750 
Q 2619 4750 2861 4703 
Q 3103 4656 3366 4563 
z
" transform="scale(0.015625)"/>
       </defs>
       <use xlink:href="#DejaVuSans-36"/>
      </g>
     </g>
    </g>
    <g id="ytick_5">
     <g id="line2d_23">
      <path d="M 135 120.535917 
L 972 120.535917 
" clip-path="url(#p9b02245c59)" style="fill: none; stroke: #b0b0b0; stroke-width: 0.8; stroke-linecap: square"/>
     </g>
     <g id="line2d_24">
      <g>
       <use xlink:href="#m599a484e78" x="135" y="120.535917" style="stroke: #000000; stroke-width: 0.8"/>
      </g>
     </g>
     <g id="text_13">
      <!-- 8 -->
      <g transform="translate(121.6375 124.335136) scale(0.1 -0.1)">
       <defs>
        <path id="DejaVuSans-38" d="M 2034 2216 
Q 1584 2216 1326 1975 
Q 1069 1734 1069 1313 
Q 1069 891 1326 650 
Q 1584 409 2034 409 
Q 2484 409 2743 651 
Q 3003 894 3003 1313 
Q 3003 1734 2745 1975 
Q 2488 2216 2034 2216 
z
M 1403 2484 
Q 997 2584 770 2862 
Q 544 3141 544 3541 
Q 544 4100 942 4425 
Q 1341 4750 2034 4750 
Q 2731 4750 3128 4425 
Q 3525 4100 3525 3541 
Q 3525 3141 3298 2862 
Q 3072 2584 2669 2484 
Q 3125 2378 3379 2068 
Q 3634 1759 3634 1313 
Q 3634 634 3220 271 
Q 2806 -91 2034 -91 
Q 1263 -91 848 271 
Q 434 634 434 1313 
Q 434 1759 690 2068 
Q 947 2378 1403 2484 
z
M 1172 3481 
Q 1172 3119 1398 2916 
Q 1625 2713 2034 2713 
Q 2441 2713 2670 2916 
Q 2900 3119 2900 3481 
Q 2900 3844 2670 4047 
Q 2441 4250 2034 4250 
Q 1625 4250 1398 4047 
Q 1172 3844 1172 3481 
z
" transform="scale(0.015625)"/>
       </defs>
       <use xlink:href="#DejaVuSans-38"/>
      </g>
     </g>
    </g>
    <g id="ytick_6">
     <g id="line2d_25">
      <path d="M 135 72 
L 972 72 
" clip-path="url(#p9b02245c59)" style="fill: none; stroke: #b0b0b0; stroke-width: 0.8; stroke-linecap: square"/>
     </g>
     <g id="line2d_26">
      <g>
       <use xlink:href="#m599a484e78" x="135" y="72" style="stroke: #000000; stroke-width: 0.8"/>
      </g>
     </g>
     <g id="text_14">
      <!-- 10 -->
      <g transform="translate(115.275 75.799219) scale(0.1 -0.1)">
       <use xlink:href="#DejaVuSans-31"/>
       <use xlink:href="#DejaVuSans-30" x="63.623047"/>
      </g>
     </g>
    </g>
    <g id="text_15">
     <!-- $|\bf t|$ [mm] -->
     <g transform="translate(107.195 230.508191) rotate(-90) scale(0.17 -0.17)">
      <defs>
       <path id="DejaVuSans-7c" d="M 1344 4891 
L 1344 -1509 
L 813 -1509 
L 813 4891 
L 1344 4891 
z
" transform="scale(0.015625)"/>
       <path id="DejaVuSans-Bold-74" d="M 1759 4494 
L 1759 3500 
L 2913 3500 
L 2913 2700 
L 1759 2700 
L 1759 1216 
Q 1759 972 1856 886 
Q 1953 800 2241 800 
L 2816 800 
L 2816 0 
L 1856 0 
Q 1194 0 917 276 
Q 641 553 641 1216 
L 641 2700 
L 84 2700 
L 84 3500 
L 641 3500 
L 641 4494 
L 1759 4494 
z
" transform="scale(0.015625)"/>
       <path id="DejaVuSans-Bold-7c" d="M 1522 4891 
L 1522 -1509 
L 813 -1509 
L 813 4891 
L 1522 4891 
z
" transform="scale(0.015625)"/>
       <path id="DejaVuSans-20" transform="scale(0.015625)"/>
       <path id="DejaVuSans-5b" d="M 550 4863 
L 1875 4863 
L 1875 4416 
L 1125 4416 
L 1125 -397 
L 1875 -397 
L 1875 -844 
L 550 -844 
L 550 4863 
z
" transform="scale(0.015625)"/>
       <path id="DejaVuSans-5d" d="M 1947 4863 
L 1947 -844 
L 622 -844 
L 622 -397 
L 1369 -397 
L 1369 4416 
L 622 4416 
L 622 4863 
L 1947 4863 
z
" transform="scale(0.015625)"/>
      </defs>
      <use xlink:href="#DejaVuSans-7c" transform="translate(0 0.578125)"/>
      <use xlink:href="#DejaVuSans-Bold-74" transform="translate(33.691406 0.578125)"/>
      <use xlink:href="#DejaVuSans-Bold-7c" transform="translate(81.494141 0.578125)"/>
      <use xlink:href="#DejaVuSans-20" transform="translate(118.017578 0.578125)"/>
      <use xlink:href="#DejaVuSans-5b" transform="translate(149.804688 0.578125)"/>
      <use xlink:href="#DejaVuSans-6d" transform="translate(188.818359 0.578125)"/>
      <use xlink:href="#DejaVuSans-6d" transform="translate(286.230469 0.578125)"/>
      <use xlink:href="#DejaVuSans-5d" transform="translate(383.642578 0.578125)"/>
     </g>
    </g>
   </g>
   <g id="line2d_27">
    <path d="M 173.045455 314.679587 
L 175.358248 314.149017 
L 177.671042 312.82251 
L 179.983835 314.072202 
L 182.296629 313.449694 
L 184.609422 313.112365 
L 186.922216 313.660555 
L 189.23501 311.583095 
L 191.547803 310.125364 
L 193.860597 311.498513 
L 196.17339 310.095426 
L 198.486184 310.400508 
L 200.798978 311.110504 
L 203.111771 310.393701 
L 205.424565 310.575797 
L 207.737358 310.425325 
L 210.050152 311.377498 
L 212.362946 311.500812 
L 214.675739 310.699651 
L 216.988533 309.173324 
L 219.301326 309.355823 
L 221.61412 309.765506 
L 223.926914 310.303478 
L 228.552501 309.154815 
L 230.865294 309.526445 
L 235.490881 309.86625 
L 237.803675 307.463617 
L 240.116469 309.308227 
L 242.429262 309.415779 
L 244.742056 309.3225 
L 247.054849 307.910694 
L 251.680437 305.670215 
L 253.99323 306.126201 
L 256.306024 307.668433 
L 258.618817 307.031948 
L 260.931611 307.149565 
L 263.244405 308.967812 
L 265.557198 310.487438 
L 267.869992 307.492938 
L 270.182785 306.014231 
L 272.495579 303.536949 
L 274.808372 302.272776 
L 277.121166 302.977534 
L 279.43396 300.690228 
L 281.746753 299.519226 
L 284.059547 299.14674 
L 286.37234 299.363733 
L 288.685134 300.18172 
L 290.997928 298.987927 
L 293.310721 298.683931 
L 295.623515 299.211711 
L 297.936308 299.567225 
L 300.249102 298.732871 
L 302.561896 296.017798 
L 304.874689 296.41231 
L 307.187483 296.543142 
L 309.500276 294.318077 
L 311.81307 296.653176 
L 314.125863 296.06299 
L 316.438657 296.933974 
L 318.751451 297.137178 
L 321.064244 295.049887 
L 323.377038 293.650185 
L 325.689831 292.734324 
L 328.002625 291.648207 
L 332.628212 286.864707 
L 334.941006 287.335643 
L 337.253799 286.819056 
L 339.566593 284.039273 
L 341.879387 283.969579 
L 344.19218 280.825392 
L 346.504974 281.401116 
L 348.817767 280.873986 
L 351.130561 276.569496 
L 353.443355 279.908844 
L 358.068942 281.235725 
L 362.694529 278.546002 
L 365.007322 277.987884 
L 367.320116 279.432015 
L 371.945703 278.86924 
L 374.258497 278.898101 
L 376.57129 278.293425 
L 378.884084 278.851819 
L 381.196878 279.281115 
L 383.509671 279.184316 
L 385.822465 277.764616 
L 388.135258 276.69087 
L 390.448052 279.74627 
L 392.760846 276.8548 
L 395.073639 275.800305 
L 397.386433 277.877188 
L 399.699226 276.780388 
L 402.01202 276.193672 
L 404.324813 276.210431 
L 406.637607 275.338691 
L 408.950401 273.882846 
L 411.263194 274.978062 
L 415.888781 271.848797 
L 418.201575 271.275735 
L 422.827162 269.581476 
L 425.139956 268.443051 
L 427.452749 266.979111 
L 429.765543 266.589154 
L 432.078337 266.423444 
L 434.39113 266.638951 
L 436.703924 266.085536 
L 439.016717 266.839534 
L 443.642305 266.59793 
L 445.955098 265.469314 
L 448.267892 265.24677 
L 450.580685 264.549711 
L 452.893479 264.16005 
L 455.206272 262.788766 
L 457.519066 261.668293 
L 459.83186 261.247054 
L 462.144653 259.924873 
L 464.457447 259.366605 
L 466.77024 257.709961 
L 469.083034 256.689971 
L 471.395828 256.362444 
L 473.708621 253.112903 
L 476.021415 252.028818 
L 478.334208 252.884826 
L 480.647002 251.365604 
L 482.959796 250.927977 
L 485.272589 249.89363 
L 487.585383 250.195859 
L 489.898176 248.876435 
L 492.21097 248.554057 
L 494.523763 246.531693 
L 496.836557 246.4281 
L 499.149351 245.4439 
L 501.462144 243.209787 
L 503.774938 241.835715 
L 506.087731 239.198157 
L 508.400525 236.159714 
L 510.713319 234.608053 
L 515.338906 229.761597 
L 517.651699 230.025333 
L 519.964493 227.649528 
L 522.277287 225.605669 
L 524.59008 222.985135 
L 526.902874 219.794588 
L 529.215667 217.372991 
L 531.528461 214.121519 
L 533.841254 213.965601 
L 536.154048 214.035597 
L 538.466842 213.226331 
L 543.092429 208.145732 
L 545.405222 207.081675 
L 547.718016 203.583368 
L 552.343603 198.140901 
L 554.656397 191.92179 
L 559.281984 186.724329 
L 561.594778 185.527841 
L 563.907571 185.02559 
L 566.220365 184.32007 
L 568.533158 183.371618 
L 570.845952 181.400806 
L 573.158746 181.721408 
L 575.471539 181.441236 
L 577.784333 181.83007 
L 580.097126 181.940068 
L 582.40992 181.733914 
L 584.722713 180.910817 
L 587.035507 179.875411 
L 589.348301 178.124655 
L 591.661094 178.438826 
L 593.973888 178.620016 
L 596.286681 176.81965 
L 600.912269 175.531449 
L 603.225062 174.140697 
L 605.537856 174.999069 
L 607.850649 174.724836 
L 610.163443 173.642906 
L 612.476237 173.422704 
L 614.78903 172.70209 
L 617.101824 174.332005 
L 619.414617 173.405749 
L 624.040204 174.071515 
L 626.352998 174.193742 
L 630.978585 174.009948 
L 633.291379 174.84925 
L 635.604172 176.670161 
L 637.916966 176.299738 
L 640.22976 176.429999 
L 642.542553 177.883532 
L 644.855347 178.726899 
L 647.16814 178.0967 
L 649.480934 178.81361 
L 651.793728 178.980391 
L 654.106521 178.232877 
L 658.732108 177.693949 
L 661.044902 178.082723 
L 663.357695 176.528837 
L 665.670489 176.866068 
L 667.983283 177.558568 
L 670.296076 177.790063 
L 672.60887 176.810929 
L 674.921663 178.093195 
L 677.234457 176.329968 
L 679.547251 177.962609 
L 681.860044 176.672915 
L 684.172838 176.430046 
L 686.485631 175.025018 
L 688.798425 175.547777 
L 691.111219 174.203535 
L 693.424012 175.318135 
L 695.736806 176.187746 
L 698.049599 176.200353 
L 700.362393 177.476166 
L 702.675187 177.584737 
L 704.98798 178.289847 
L 707.300774 178.835736 
L 709.613567 178.447544 
L 711.926361 178.933603 
L 714.239154 179.210813 
L 716.551948 179.859948 
L 718.864742 179.234041 
L 721.177535 179.314478 
L 723.490329 180.525017 
L 725.803122 179.919993 
L 728.115916 181.238924 
L 730.42871 181.88981 
L 732.741503 180.936989 
L 735.054297 181.739399 
L 737.36709 181.785245 
L 739.679884 180.474861 
L 741.992678 182.730992 
L 744.305471 183.113234 
L 746.618265 183.966961 
L 748.931058 182.824218 
L 751.243852 183.630822 
L 755.869439 187.789836 
L 758.182233 189.320005 
L 760.495026 189.084297 
L 762.80782 189.632412 
L 765.120613 189.54944 
L 767.433407 191.225263 
L 769.746201 191.236574 
L 772.058994 193.861624 
L 774.371788 194.416669 
L 776.684581 196.005299 
L 778.997375 195.895959 
L 781.310169 197.331729 
L 783.622962 199.246385 
L 785.935756 198.376491 
L 788.248549 198.595757 
L 790.561343 199.707607 
L 792.874137 199.278579 
L 795.18693 199.538145 
L 797.499724 198.866193 
L 802.125311 200.702318 
L 804.438104 200.428865 
L 806.750898 199.103081 
L 809.063692 198.736268 
L 811.376485 198.52076 
L 813.689279 198.839331 
L 816.002072 199.696118 
L 818.314866 201.088746 
L 820.62766 199.905456 
L 822.940453 200.481609 
L 825.253247 199.402784 
L 827.56604 199.664813 
L 829.878834 200.118054 
L 832.191628 199.077167 
L 834.504421 198.620151 
L 836.817215 200.349654 
L 839.130008 199.588785 
L 841.442802 199.859445 
L 843.755595 198.444766 
L 846.068389 200.047842 
L 848.381183 199.092172 
L 850.693976 197.711539 
L 853.00677 199.489012 
L 855.319563 198.966971 
L 857.632357 198.573209 
L 859.945151 199.296498 
L 862.257944 199.211572 
L 864.570738 197.621637 
L 866.883531 197.59498 
L 869.196325 197.141014 
L 871.509119 196.066143 
L 873.821912 193.373956 
L 876.134706 193.417521 
L 878.447499 193.988387 
L 880.760293 193.85718 
L 883.073086 191.626928 
L 885.38588 190.96662 
L 887.698674 189.057001 
L 892.324261 185.992365 
L 894.637054 186.165359 
L 896.949848 184.58334 
L 899.262642 184.453719 
L 901.575435 183.829938 
L 903.888229 185.27505 
L 906.201022 184.397122 
L 908.513816 185.721879 
L 910.82661 185.757521 
L 913.139403 185.330101 
L 917.76499 183.348449 
L 920.077784 183.459937 
L 924.703371 182.020593 
L 927.016165 182.684354 
L 929.328958 181.571052 
L 931.641752 181.454868 
L 933.954545 180.37183 
L 933.954545 180.37183 
" clip-path="url(#p9b02245c59)" style="fill: none; stroke: #1f77b4; stroke-width: 2; stroke-linecap: square"/>
   </g>
   <g id="line2d_28">
    <path d="M 173.045455 314.679587 
L 175.358248 313.88268 
L 177.671042 313.642185 
L 179.983835 313.249161 
L 182.296629 313.954868 
L 184.609422 314.053044 
L 186.922216 313.391121 
L 189.23501 312.081447 
L 191.547803 311.032667 
L 193.860597 310.496837 
L 196.17339 310.329659 
L 198.486184 309.826372 
L 200.798978 309.072364 
L 203.111771 308.889672 
L 205.424565 309.326523 
L 207.737358 308.226233 
L 212.362946 308.380303 
L 214.675739 307.405608 
L 216.988533 307.452549 
L 219.301326 307.837173 
L 221.61412 307.526141 
L 223.926914 306.856569 
L 226.239707 306.714754 
L 228.552501 306.700256 
L 230.865294 306.835343 
L 233.178088 305.859203 
L 235.490881 304.295519 
L 237.803675 302.898187 
L 240.116469 303.008849 
L 242.429262 303.00809 
L 244.742056 302.419276 
L 247.054849 301.656782 
L 249.367643 301.325049 
L 251.680437 301.646928 
L 253.99323 300.62501 
L 256.306024 299.122995 
L 258.618817 297.877057 
L 260.931611 296.765235 
L 263.244405 295.496271 
L 265.557198 295.147495 
L 267.869992 294.63577 
L 270.182785 293.161687 
L 272.495579 291.942209 
L 274.808372 291.336607 
L 277.121166 289.734615 
L 279.43396 287.313805 
L 281.746753 285.653698 
L 284.059547 283.560748 
L 286.37234 282.914803 
L 288.685134 281.699742 
L 290.997928 279.371419 
L 293.310721 280.402159 
L 295.623515 276.860516 
L 300.249102 273.233306 
L 302.561896 272.80406 
L 304.874689 273.638363 
L 307.187483 274.669089 
L 309.500276 274.346724 
L 311.81307 274.637941 
L 314.125863 274.31632 
L 316.438657 274.662685 
L 318.751451 274.523134 
L 323.377038 273.171629 
L 325.689831 274.17277 
L 328.002625 272.74492 
L 330.315419 271.626858 
L 332.628212 268.109176 
L 334.941006 267.333195 
L 339.566593 260.746711 
L 341.879387 259.004082 
L 344.19218 257.923341 
L 346.504974 257.555309 
L 348.817767 255.99105 
L 351.130561 255.778537 
L 355.756148 253.939366 
L 358.068942 254.705429 
L 362.694529 254.04502 
L 365.007322 253.713375 
L 367.320116 253.917748 
L 369.63291 253.844761 
L 371.945703 252.646806 
L 374.258497 251.590578 
L 376.57129 250.699958 
L 378.884084 249.047243 
L 381.196878 247.630934 
L 383.509671 245.092397 
L 385.822465 243.584779 
L 388.135258 244.031129 
L 390.448052 244.29386 
L 392.760846 243.227056 
L 395.073639 244.097678 
L 397.386433 244.26456 
L 399.699226 243.606953 
L 402.01202 244.62928 
L 406.637607 244.187781 
L 408.950401 242.992265 
L 413.575988 241.796629 
L 415.888781 240.296635 
L 418.201575 240.51694 
L 420.514369 240.896826 
L 422.827162 240.228595 
L 425.139956 238.875315 
L 427.452749 236.281759 
L 429.765543 235.586113 
L 432.078337 235.603654 
L 434.39113 236.363909 
L 436.703924 236.835423 
L 439.016717 237.884368 
L 441.329511 237.81311 
L 443.642305 238.312893 
L 445.955098 239.436351 
L 448.267892 239.38324 
L 450.580685 240.32338 
L 457.519066 240.168931 
L 459.83186 240.641365 
L 462.144653 240.763418 
L 464.457447 241.337305 
L 466.77024 241.750762 
L 469.083034 242.740922 
L 471.395828 242.033527 
L 473.708621 242.221054 
L 476.021415 244.988934 
L 478.334208 246.988292 
L 482.959796 247.579968 
L 485.272589 248.27827 
L 487.585383 250.478537 
L 489.898176 252.431253 
L 492.21097 253.066822 
L 494.523763 253.247805 
L 496.836557 252.981969 
L 499.149351 253.322249 
L 501.462144 253.989749 
L 503.774938 255.294637 
L 508.400525 255.727862 
L 513.026112 254.043834 
L 515.338906 252.747595 
L 517.651699 252.361818 
L 519.964493 252.465579 
L 522.277287 252.262508 
L 524.59008 252.593465 
L 526.902874 252.472853 
L 529.215667 252.553802 
L 531.528461 253.081302 
L 533.841254 253.255169 
L 536.154048 252.707916 
L 538.466842 254.193244 
L 540.779635 253.094028 
L 543.092429 255.322594 
L 547.718016 258.337089 
L 550.03081 258.453776 
L 552.343603 258.775447 
L 554.656397 258.617853 
L 556.96919 259.607663 
L 559.281984 258.134186 
L 561.594778 257.800665 
L 563.907571 258.84822 
L 566.220365 259.577919 
L 568.533158 259.881035 
L 570.845952 259.631668 
L 573.158746 262.4095 
L 575.471539 263.103405 
L 577.784333 264.666848 
L 580.097126 266.956956 
L 582.40992 266.97162 
L 584.722713 267.333584 
L 587.035507 267.860916 
L 589.348301 268.098541 
L 591.661094 268.794494 
L 593.973888 270.104631 
L 596.286681 272.004715 
L 598.599475 272.908233 
L 600.912269 276.405567 
L 603.225062 277.819751 
L 605.537856 276.943941 
L 607.850649 279.285994 
L 610.163443 280.582745 
L 612.476237 279.935381 
L 614.78903 281.075481 
L 617.101824 281.586896 
L 619.414617 282.541054 
L 621.727411 284.384763 
L 624.040204 283.738513 
L 626.352998 283.634819 
L 628.665792 283.826692 
L 630.978585 283.675965 
L 633.291379 284.098905 
L 635.604172 283.953173 
L 637.916966 284.353195 
L 640.22976 285.367739 
L 642.542553 285.442409 
L 644.855347 286.233593 
L 647.16814 286.419572 
L 649.480934 286.246124 
L 654.106521 286.514698 
L 656.419315 286.406827 
L 658.732108 285.391697 
L 663.357695 284.467401 
L 665.670489 284.804388 
L 667.983283 284.097833 
L 670.296076 284.659761 
L 672.60887 284.166308 
L 674.921663 284.703356 
L 677.234457 284.843898 
L 679.547251 285.228248 
L 684.172838 283.644648 
L 686.485631 282.960227 
L 688.798425 282.801125 
L 693.424012 281.396672 
L 695.736806 281.74254 
L 698.049599 282.730053 
L 700.362393 283.119481 
L 702.675187 284.028973 
L 704.98798 284.53082 
L 707.300774 283.698575 
L 709.613567 283.185046 
L 711.926361 282.953325 
L 714.239154 283.364936 
L 716.551948 284.978087 
L 718.864742 285.07667 
L 721.177535 286.969384 
L 723.490329 286.844346 
L 725.803122 287.896835 
L 728.115916 287.609501 
L 730.42871 287.005635 
L 732.741503 287.073077 
L 735.054297 285.427796 
L 737.36709 282.963927 
L 741.992678 280.934156 
L 744.305471 279.34917 
L 746.618265 278.436472 
L 748.931058 279.182164 
L 751.243852 278.835778 
L 753.556645 278.253691 
L 755.869439 279.687106 
L 758.182233 279.322837 
L 760.495026 278.725638 
L 762.80782 277.987174 
L 765.120613 275.932906 
L 767.433407 274.777614 
L 769.746201 273.157599 
L 772.058994 271.07861 
L 774.371788 269.50711 
L 778.997375 266.613693 
L 781.310169 265.682921 
L 783.622962 265.577688 
L 785.935756 266.020252 
L 788.248549 266.155711 
L 790.561343 266.086204 
L 792.874137 265.648414 
L 795.18693 266.556701 
L 797.499724 266.748912 
L 799.812517 265.712246 
L 802.125311 265.012427 
L 806.750898 265.005099 
L 809.063692 262.474988 
L 811.376485 258.85714 
L 816.002072 254.735337 
L 818.314866 253.619723 
L 820.62766 254.128744 
L 822.940453 253.288835 
L 825.253247 253.158005 
L 827.56604 252.900204 
L 829.878834 251.822101 
L 832.191628 251.45904 
L 834.504421 249.156458 
L 836.817215 247.39516 
L 839.130008 246.202195 
L 841.442802 245.194308 
L 843.755595 244.378485 
L 846.068389 242.392963 
L 848.381183 241.644604 
L 850.693976 240.179654 
L 855.319563 236.35783 
L 857.632357 235.03479 
L 859.945151 233.226056 
L 864.570738 231.162771 
L 866.883531 229.293155 
L 869.196325 227.1196 
L 871.509119 224.515569 
L 873.821912 223.693948 
L 876.134706 221.415234 
L 878.447499 219.893646 
L 880.760293 219.829478 
L 883.073086 219.131018 
L 885.38588 219.425678 
L 887.698674 218.861603 
L 890.011467 217.404124 
L 892.324261 214.47721 
L 894.637054 214.382794 
L 896.949848 213.500307 
L 899.262642 212.981226 
L 901.575435 213.332841 
L 903.888229 212.576657 
L 906.201022 212.876366 
L 908.513816 212.25148 
L 913.139403 208.699356 
L 915.452197 208.197725 
L 917.76499 206.120035 
L 920.077784 202.415033 
L 922.390578 199.978891 
L 924.703371 198.808933 
L 927.016165 197.918714 
L 929.328958 198.48794 
L 931.641752 197.132172 
L 933.954545 198.905807 
L 933.954545 198.905807 
" clip-path="url(#p9b02245c59)" style="fill: none; stroke: #ff7f0e; stroke-width: 2; stroke-linecap: square"/>
   </g>
   <g id="line2d_29">
    <path d="M 173.045455 314.679587 
L 175.358248 314.108231 
L 177.671042 313.907093 
L 179.983835 314.029052 
L 182.296629 313.667384 
L 184.609422 312.848274 
L 186.922216 312.790777 
L 189.23501 311.491876 
L 191.547803 310.568793 
L 196.17339 309.404964 
L 198.486184 309.251508 
L 200.798978 308.955527 
L 203.111771 308.463385 
L 205.424565 309.537785 
L 207.737358 308.940601 
L 210.050152 307.955266 
L 212.362946 308.092376 
L 214.675739 307.949083 
L 216.988533 308.207566 
L 219.301326 307.736618 
L 221.61412 308.109838 
L 223.926914 306.51793 
L 226.239707 306.552448 
L 228.552501 306.921381 
L 230.865294 308.581933 
L 233.178088 307.986588 
L 235.490881 309.179398 
L 237.803675 308.664046 
L 240.116469 307.225 
L 242.429262 306.744632 
L 244.742056 307.604991 
L 247.054849 306.361347 
L 249.367643 305.475688 
L 251.680437 303.712018 
L 253.99323 302.480256 
L 256.306024 301.081727 
L 258.618817 300.37659 
L 260.931611 299.062015 
L 263.244405 297.21059 
L 267.869992 294.927454 
L 270.182785 294.227562 
L 272.495579 295.450173 
L 274.808372 295.262943 
L 277.121166 295.212968 
L 279.43396 294.582789 
L 281.746753 295.167609 
L 284.059547 295.181389 
L 288.685134 294.293935 
L 290.997928 294.27919 
L 293.310721 294.637665 
L 295.623515 293.976548 
L 297.936308 293.857769 
L 300.249102 292.42503 
L 302.561896 293.182416 
L 304.874689 291.784653 
L 307.187483 291.034775 
L 309.500276 290.785617 
L 311.81307 289.922918 
L 314.125863 288.7768 
L 316.438657 288.87539 
L 318.751451 288.157326 
L 321.064244 288.199222 
L 323.377038 287.408374 
L 325.689831 286.901596 
L 328.002625 288.090992 
L 330.315419 288.364864 
L 332.628212 287.953276 
L 334.941006 287.157143 
L 337.253799 286.977445 
L 341.879387 285.785274 
L 344.19218 284.430388 
L 346.504974 283.264402 
L 348.817767 283.048383 
L 351.130561 282.408279 
L 353.443355 281.52854 
L 355.756148 281.166827 
L 358.068942 280.207017 
L 360.381735 279.394907 
L 362.694529 279.1648 
L 365.007322 278.794497 
L 367.320116 278.296668 
L 369.63291 277.151107 
L 371.945703 277.36184 
L 374.258497 277.365623 
L 376.57129 277.90582 
L 378.884084 277.100223 
L 381.196878 277.054724 
L 383.509671 276.331459 
L 385.822465 275.77046 
L 388.135258 276.053342 
L 390.448052 275.976946 
L 392.760846 277.107574 
L 395.073639 276.925879 
L 397.386433 275.317028 
L 399.699226 275.269503 
L 402.01202 274.742764 
L 406.637607 274.497663 
L 408.950401 274.737414 
L 411.263194 273.703582 
L 413.575988 273.350724 
L 418.201575 271.095541 
L 420.514369 270.583104 
L 422.827162 270.349315 
L 425.139956 268.529611 
L 427.452749 267.954676 
L 429.765543 266.633343 
L 434.39113 265.76353 
L 436.703924 264.077026 
L 439.016717 262.622102 
L 441.329511 261.789326 
L 443.642305 261.246166 
L 445.955098 260.553309 
L 448.267892 259.571316 
L 450.580685 258.846871 
L 452.893479 257.074241 
L 457.519066 255.656564 
L 459.83186 255.417511 
L 462.144653 254.599492 
L 464.457447 253.417346 
L 469.083034 255.099101 
L 473.708621 253.658458 
L 476.021415 253.818338 
L 478.334208 254.710834 
L 480.647002 256.049391 
L 482.959796 256.569001 
L 485.272589 256.420805 
L 487.585383 257.11073 
L 489.898176 257.091453 
L 492.21097 256.652618 
L 494.523763 256.546379 
L 496.836557 257.407632 
L 501.462144 259.730513 
L 503.774938 261.517852 
L 506.087731 262.125646 
L 508.400525 263.041026 
L 510.713319 262.984021 
L 513.026112 263.282926 
L 515.338906 263.390573 
L 517.651699 264.251513 
L 519.964493 264.494143 
L 522.277287 266.154495 
L 524.59008 266.134183 
L 526.902874 266.686549 
L 531.528461 268.916613 
L 533.841254 268.339146 
L 536.154048 269.449635 
L 538.466842 269.892131 
L 543.092429 271.756429 
L 545.405222 271.725973 
L 547.718016 272.223512 
L 550.03081 272.471928 
L 552.343603 273.488099 
L 554.656397 273.88742 
L 556.96919 275.181164 
L 559.281984 275.28842 
L 561.594778 276.701891 
L 563.907571 277.558569 
L 568.533158 278.124886 
L 570.845952 278.803793 
L 573.158746 279.08365 
L 580.097126 281.183941 
L 587.035507 282.171582 
L 591.661094 283.481759 
L 593.973888 283.878688 
L 596.286681 283.624373 
L 598.599475 284.346838 
L 603.225062 285.289815 
L 605.537856 286.554252 
L 607.850649 286.764344 
L 610.163443 286.8423 
L 612.476237 285.539178 
L 614.78903 285.26046 
L 617.101824 285.642264 
L 619.414617 284.495783 
L 621.727411 284.585794 
L 624.040204 285.150204 
L 626.352998 284.504445 
L 628.665792 284.401538 
L 630.978585 285.245821 
L 635.604172 283.741264 
L 637.916966 283.853331 
L 640.22976 283.775388 
L 642.542553 282.493352 
L 644.855347 281.439618 
L 647.16814 280.58692 
L 649.480934 279.242341 
L 651.793728 278.950881 
L 654.106521 277.368853 
L 656.419315 275.016706 
L 658.732108 273.941602 
L 661.044902 272.694334 
L 663.357695 271.618561 
L 667.983283 271.952536 
L 670.296076 271.645364 
L 672.60887 270.589945 
L 674.921663 269.716715 
L 677.234457 269.320327 
L 679.547251 268.410699 
L 681.860044 268.631925 
L 684.172838 268.370644 
L 686.485631 267.467653 
L 688.798425 266.913065 
L 691.111219 265.398032 
L 693.424012 262.725621 
L 695.736806 260.637958 
L 702.675187 259.425875 
L 704.98798 259.232834 
L 707.300774 259.500379 
L 709.613567 257.895857 
L 711.926361 256.865138 
L 714.239154 256.553449 
L 716.551948 255.150839 
L 721.177535 252.034342 
L 723.490329 251.92577 
L 725.803122 249.282547 
L 728.115916 246.808611 
L 730.42871 246.184078 
L 732.741503 245.179396 
L 735.054297 243.961245 
L 737.36709 243.045793 
L 739.679884 242.252727 
L 741.992678 241.113857 
L 744.305471 241.410766 
L 746.618265 239.506547 
L 748.931058 237.971054 
L 751.243852 237.392475 
L 753.556645 235.58449 
L 755.869439 235.211481 
L 758.182233 234.326061 
L 760.495026 233.863656 
L 762.80782 234.271151 
L 765.120613 233.981832 
L 767.433407 235.475103 
L 769.746201 235.74359 
L 772.058994 237.292292 
L 776.684581 239.552074 
L 783.622962 241.223597 
L 785.935756 242.58972 
L 788.248549 243.018988 
L 790.561343 243.790063 
L 792.874137 243.482734 
L 795.18693 243.971982 
L 797.499724 243.434936 
L 799.812517 243.296589 
L 802.125311 244.352261 
L 809.063692 242.44522 
L 811.376485 241.441635 
L 813.689279 241.15746 
L 816.002072 239.757742 
L 818.314866 239.745004 
L 820.62766 238.448756 
L 822.940453 236.671645 
L 825.253247 234.278901 
L 827.56604 233.13388 
L 829.878834 233.004516 
L 832.191628 231.565911 
L 834.504421 230.734648 
L 836.817215 230.579557 
L 839.130008 229.091781 
L 841.442802 228.320565 
L 843.755595 228.199782 
L 846.068389 227.110089 
L 848.381183 227.241107 
L 853.00677 228.078152 
L 855.319563 227.2137 
L 857.632357 227.42985 
L 859.945151 228.050228 
L 862.257944 227.972743 
L 864.570738 228.680679 
L 866.883531 229.520773 
L 869.196325 230.163117 
L 871.509119 229.020489 
L 873.821912 229.536482 
L 876.134706 230.192706 
L 878.447499 229.784719 
L 880.760293 229.825672 
L 883.073086 228.762042 
L 887.698674 227.965702 
L 890.011467 227.808121 
L 892.324261 226.723983 
L 896.949848 225.496969 
L 899.262642 224.611641 
L 901.575435 224.358818 
L 903.888229 223.746528 
L 906.201022 223.312712 
L 908.513816 223.516126 
L 910.82661 223.846566 
L 913.139403 223.638734 
L 915.452197 224.183742 
L 917.76499 225.335748 
L 920.077784 225.267477 
L 922.390578 224.976257 
L 924.703371 224.520009 
L 927.016165 223.148498 
L 929.328958 223.012048 
L 931.641752 222.31656 
L 933.954545 222.707983 
L 933.954545 222.707983 
" clip-path="url(#p9b02245c59)" style="fill: none; stroke: #2ca02c; stroke-width: 2; stroke-linecap: square"/>
   </g>
   <g id="line2d_30">
    <path d="M 173.045455 314.679587 
L 175.358248 313.375973 
L 177.671042 313.304075 
L 179.983835 312.471895 
L 182.296629 311.759024 
L 184.609422 311.275271 
L 186.922216 311.332123 
L 189.23501 310.317145 
L 191.547803 308.77535 
L 193.860597 308.357577 
L 196.17339 307.757914 
L 198.486184 307.334219 
L 200.798978 307.817533 
L 203.111771 307.807403 
L 205.424565 308.74662 
L 207.737358 309.869943 
L 210.050152 310.056245 
L 214.675739 309.244448 
L 216.988533 309.116511 
L 221.61412 307.074689 
L 223.926914 306.698583 
L 226.239707 307.033465 
L 228.552501 306.010392 
L 230.865294 306.243646 
L 233.178088 307.093512 
L 235.490881 306.370475 
L 237.803675 305.097569 
L 240.116469 304.430092 
L 242.429262 305.104449 
L 244.742056 305.258565 
L 247.054849 305.129133 
L 249.367643 304.769497 
L 253.99323 304.519176 
L 256.306024 303.746895 
L 258.618817 303.738865 
L 260.931611 302.96925 
L 263.244405 302.677024 
L 265.557198 302.247289 
L 270.182785 302.291028 
L 272.495579 302.894975 
L 274.808372 302.846907 
L 277.121166 301.670752 
L 279.43396 301.79661 
L 281.746753 302.303867 
L 284.059547 302.107656 
L 288.685134 301.300896 
L 293.310721 301.368199 
L 295.623515 302.004428 
L 297.936308 301.90583 
L 300.249102 302.283272 
L 302.561896 302.437148 
L 304.874689 302.852041 
L 309.500276 302.657614 
L 311.81307 302.256524 
L 314.125863 302.867997 
L 316.438657 302.47796 
L 318.751451 301.866472 
L 321.064244 301.055255 
L 323.377038 302.160788 
L 325.689831 301.327979 
L 328.002625 302.09834 
L 330.315419 301.85487 
L 332.628212 301.324057 
L 334.941006 301.90316 
L 337.253799 301.487728 
L 339.566593 300.94915 
L 341.879387 301.551793 
L 344.19218 301.613854 
L 346.504974 301.243791 
L 348.817767 301.232581 
L 351.130561 302.135324 
L 353.443355 301.643728 
L 355.756148 301.670415 
L 358.068942 302.307483 
L 360.381735 302.601789 
L 362.694529 301.497163 
L 365.007322 302.090334 
L 367.320116 302.32121 
L 369.63291 301.079149 
L 371.945703 301.856254 
L 374.258497 301.565047 
L 378.884084 300.730024 
L 381.196878 300.803546 
L 383.509671 300.368451 
L 385.822465 300.06968 
L 388.135258 299.900865 
L 390.448052 299.237885 
L 392.760846 299.175688 
L 395.073639 300.234409 
L 397.386433 298.85532 
L 399.699226 299.308054 
L 402.01202 298.178455 
L 404.324813 298.733652 
L 406.637607 298.185739 
L 408.950401 297.839263 
L 411.263194 297.169642 
L 415.888781 297.133971 
L 418.201575 297.081265 
L 420.514369 295.869776 
L 422.827162 296.051279 
L 425.139956 295.449024 
L 427.452749 294.042264 
L 429.765543 293.952643 
L 432.078337 292.963487 
L 434.39113 291.684845 
L 436.703924 291.716075 
L 441.329511 290.248917 
L 443.642305 288.996183 
L 445.955098 288.690762 
L 448.267892 287.855415 
L 450.580685 285.912911 
L 452.893479 284.232754 
L 455.206272 282.303667 
L 457.519066 280.897474 
L 459.83186 280.318423 
L 462.144653 279.925113 
L 464.457447 278.647973 
L 466.77024 277.833944 
L 469.083034 277.500319 
L 471.395828 276.891999 
L 473.708621 276.662137 
L 476.021415 275.369376 
L 480.647002 275.258611 
L 482.959796 276.649137 
L 485.272589 275.216327 
L 487.585383 274.258373 
L 489.898176 273.024258 
L 496.836557 271.797529 
L 499.149351 271.503463 
L 501.462144 270.807706 
L 503.774938 272.246272 
L 506.087731 272.051392 
L 508.400525 271.252608 
L 510.713319 271.181891 
L 513.026112 270.163755 
L 515.338906 271.388915 
L 517.651699 270.841293 
L 519.964493 270.957197 
L 522.277287 271.931356 
L 524.59008 271.3375 
L 526.902874 270.972956 
L 529.215667 269.985521 
L 531.528461 269.794306 
L 533.841254 268.734972 
L 536.154048 268.13248 
L 538.466842 269.015132 
L 540.779635 269.139086 
L 543.092429 268.790582 
L 545.405222 268.911239 
L 547.718016 269.273187 
L 550.03081 268.782147 
L 552.343603 270.150139 
L 554.656397 269.633056 
L 556.96919 269.662751 
L 559.281984 268.834503 
L 561.594778 266.794474 
L 563.907571 266.639203 
L 566.220365 265.289381 
L 568.533158 263.380759 
L 570.845952 262.783418 
L 573.158746 263.058421 
L 577.784333 262.610878 
L 580.097126 263.093101 
L 584.722713 262.565022 
L 587.035507 260.676839 
L 589.348301 261.595801 
L 591.661094 259.343792 
L 593.973888 258.292807 
L 596.286681 258.010324 
L 598.599475 256.669595 
L 600.912269 255.900704 
L 603.225062 254.175735 
L 605.537856 253.797636 
L 607.850649 253.834324 
L 610.163443 254.426509 
L 612.476237 253.07988 
L 614.78903 251.241581 
L 617.101824 249.929983 
L 621.727411 246.697129 
L 624.040204 246.951825 
L 626.352998 245.994231 
L 628.665792 245.28376 
L 630.978585 244.354198 
L 633.291379 242.885469 
L 635.604172 240.542415 
L 637.916966 237.079116 
L 640.22976 234.713005 
L 642.542553 232.78294 
L 644.855347 231.452819 
L 647.16814 230.275981 
L 649.480934 228.874073 
L 651.793728 227.660216 
L 656.419315 226.384502 
L 658.732108 225.28469 
L 663.357695 223.743216 
L 665.670489 223.460184 
L 667.983283 222.198389 
L 670.296076 220.36766 
L 672.60887 219.807072 
L 674.921663 217.923585 
L 684.172838 215.524776 
L 686.485631 214.423427 
L 688.798425 215.484128 
L 691.111219 216.394112 
L 693.424012 216.916462 
L 695.736806 216.403341 
L 698.049599 216.087817 
L 702.675187 215.922268 
L 704.98798 217.216394 
L 707.300774 216.372049 
L 709.613567 217.056796 
L 711.926361 216.729013 
L 714.239154 217.304877 
L 716.551948 217.073952 
L 718.864742 215.626393 
L 721.177535 213.649016 
L 723.490329 212.99822 
L 725.803122 213.158336 
L 728.115916 214.857683 
L 730.42871 213.496385 
L 732.741503 211.938481 
L 735.054297 211.526408 
L 737.36709 211.98537 
L 741.992678 210.912205 
L 744.305471 209.854433 
L 746.618265 209.792592 
L 748.931058 210.182548 
L 751.243852 211.265961 
L 755.869439 210.056508 
L 758.182233 210.256444 
L 760.495026 209.997848 
L 762.80782 210.522772 
L 765.120613 209.534974 
L 767.433407 209.890288 
L 769.746201 208.279894 
L 772.058994 207.772561 
L 776.684581 205.413511 
L 778.997375 202.023039 
L 781.310169 201.652767 
L 783.622962 200.363058 
L 785.935756 200.868454 
L 788.248549 199.642405 
L 790.561343 200.252175 
L 792.874137 199.172009 
L 795.18693 199.235775 
L 799.812517 201.526717 
L 802.125311 201.518169 
L 804.438104 200.578325 
L 806.750898 201.136093 
L 809.063692 202.147741 
L 811.376485 202.992872 
L 813.689279 203.199612 
L 818.314866 204.155742 
L 820.62766 203.914732 
L 822.940453 205.685289 
L 825.253247 206.145977 
L 827.56604 205.833031 
L 829.878834 205.911297 
L 832.191628 205.393322 
L 834.504421 205.320413 
L 836.817215 206.162322 
L 839.130008 205.457159 
L 841.442802 205.56049 
L 843.755595 204.866512 
L 846.068389 205.522818 
L 850.693976 204.653486 
L 853.00677 203.870081 
L 855.319563 202.834764 
L 857.632357 202.648261 
L 859.945151 202.593087 
L 862.257944 200.716338 
L 864.570738 200.279229 
L 866.883531 200.747628 
L 871.509119 200.294033 
L 873.821912 202.091712 
L 876.134706 202.503779 
L 878.447499 202.313348 
L 880.760293 202.44948 
L 883.073086 202.891575 
L 885.38588 204.603138 
L 887.698674 204.99234 
L 890.011467 206.332809 
L 892.324261 205.580497 
L 894.637054 204.519952 
L 896.949848 204.757526 
L 899.262642 203.957546 
L 901.575435 203.404991 
L 906.201022 201.142727 
L 908.513816 202.167119 
L 915.452197 204.134359 
L 917.76499 205.587654 
L 920.077784 205.706593 
L 922.390578 206.773915 
L 924.703371 205.237183 
L 927.016165 204.196199 
L 929.328958 203.42431 
L 931.641752 201.504791 
L 933.954545 201.718297 
L 933.954545 201.718297 
" clip-path="url(#p9b02245c59)" style="fill: none; stroke: #d62728; stroke-width: 2; stroke-linecap: square"/>
   </g>
   <g id="line2d_31">
    <path d="M 173.045455 314.679587 
L 175.358248 312.168563 
L 177.671042 308.506665 
L 179.983835 310.53881 
L 182.296629 309.462155 
L 184.609422 310.471029 
L 186.922216 310.446652 
L 189.23501 309.269463 
L 191.547803 310.854652 
L 193.860597 311.253513 
L 196.17339 312.758784 
L 198.486184 312.66476 
L 200.798978 310.850727 
L 207.737358 306.178982 
L 210.050152 305.02394 
L 212.362946 305.82489 
L 214.675739 305.163498 
L 216.988533 306.487965 
L 219.301326 304.301316 
L 221.61412 304.086369 
L 223.926914 304.417591 
L 226.239707 305.314885 
L 228.552501 304.177241 
L 233.178088 308.529721 
L 235.490881 309.594164 
L 237.803675 311.321231 
L 240.116469 310.650179 
L 242.429262 312.018828 
L 244.742056 312.212672 
L 247.054849 313.644175 
L 249.367643 312.475088 
L 251.680437 308.49111 
L 253.99323 307.667232 
L 256.306024 307.899604 
L 258.618817 303.816261 
L 260.931611 301.637545 
L 263.244405 301.111952 
L 265.557198 301.032576 
L 267.869992 299.039971 
L 270.182785 301.021771 
L 272.495579 300.42767 
L 274.808372 299.148957 
L 277.121166 297.727445 
L 279.43396 296.046099 
L 281.746753 286.67408 
L 284.059547 284.214216 
L 286.37234 283.641873 
L 288.685134 284.159289 
L 290.997928 283.227391 
L 293.310721 281.414847 
L 295.623515 280.313318 
L 297.936308 276.573833 
L 300.249102 272.057902 
L 304.874689 268.076657 
L 307.187483 264.408858 
L 309.500276 263.472559 
L 311.81307 263.523293 
L 314.125863 264.228751 
L 316.438657 264.396403 
L 318.751451 265.25979 
L 321.064244 266.896698 
L 323.377038 264.982822 
L 325.689831 264.207029 
L 328.002625 263.568503 
L 330.315419 263.783985 
L 332.628212 264.463081 
L 334.941006 262.491458 
L 337.253799 263.557211 
L 339.566593 265.321014 
L 341.879387 265.20459 
L 344.19218 264.964592 
L 348.817767 270.734208 
L 351.130561 271.281926 
L 353.443355 273.211112 
L 355.756148 274.714547 
L 358.068942 274.074856 
L 360.381735 276.475753 
L 362.694529 276.507353 
L 365.007322 273.192883 
L 367.320116 276.634206 
L 369.63291 275.486213 
L 371.945703 277.199193 
L 374.258497 276.150923 
L 376.57129 277.431032 
L 378.884084 278.907496 
L 381.196878 279.429768 
L 383.509671 284.16761 
L 385.822465 286.049951 
L 388.135258 287.493923 
L 390.448052 288.405 
L 392.760846 286.98849 
L 395.073639 286.545298 
L 397.386433 284.871649 
L 399.699226 285.690544 
L 402.01202 284.981759 
L 406.637607 284.075538 
L 408.950401 284.151277 
L 411.263194 284.883567 
L 413.575988 284.351149 
L 418.201575 283.022809 
L 420.514369 283.646747 
L 422.827162 281.665358 
L 425.139956 280.625909 
L 427.452749 280.224364 
L 429.765543 279.702051 
L 434.39113 279.876175 
L 436.703924 279.643777 
L 439.016717 274.359521 
L 441.329511 270.215639 
L 443.642305 262.72845 
L 445.955098 260.775844 
L 448.267892 260.275823 
L 450.580685 259.084005 
L 452.893479 256.330527 
L 457.519066 249.324304 
L 459.83186 247.210593 
L 462.144653 243.129986 
L 466.77024 230.414026 
L 469.083034 223.606433 
L 471.395828 218.986734 
L 473.708621 216.595957 
L 476.021415 213.593786 
L 478.334208 209.362268 
L 480.647002 201.439501 
L 482.959796 198.761658 
L 485.272589 195.238933 
L 487.585383 192.201209 
L 489.898176 190.977495 
L 492.21097 188.190852 
L 494.523763 186.884679 
L 496.836557 185.263243 
L 499.149351 183.150221 
L 501.462144 181.454902 
L 503.774938 180.268084 
L 506.087731 180.519931 
L 508.400525 182.576071 
L 510.713319 183.325559 
L 513.026112 187.401405 
L 515.338906 190.005605 
L 517.651699 190.263971 
L 519.964493 192.407194 
L 522.277287 192.263612 
L 524.59008 192.338257 
L 526.902874 192.54061 
L 529.215667 192.105387 
L 531.528461 189.789195 
L 533.841254 189.055036 
L 536.154048 189.543184 
L 538.466842 189.571438 
L 545.405222 186.73131 
L 547.718016 186.794133 
L 550.03081 186.266977 
L 552.343603 186.115276 
L 554.656397 185.251419 
L 556.96919 186.829375 
L 559.281984 185.989096 
L 561.594778 186.76761 
L 563.907571 186.156604 
L 566.220365 185.150376 
L 568.533158 185.164798 
L 570.845952 183.988741 
L 575.471539 183.661966 
L 577.784333 183.209752 
L 580.097126 183.776814 
L 582.40992 183.028738 
L 584.722713 182.689271 
L 587.035507 182.816932 
L 589.348301 182.741797 
L 591.661094 180.715365 
L 596.286681 178.303305 
L 598.599475 174.552701 
L 600.912269 173.878475 
L 605.537856 172.928834 
L 607.850649 171.58088 
L 610.163443 171.151643 
L 612.476237 170.082855 
L 614.78903 167.563433 
L 617.101824 166.984707 
L 619.414617 164.272177 
L 621.727411 163.882218 
L 624.040204 164.092764 
L 628.665792 162.787415 
L 630.978585 162.03855 
L 633.291379 160.706164 
L 635.604172 160.81823 
L 637.916966 159.780698 
L 640.22976 158.872113 
L 642.542553 155.594939 
L 644.855347 154.807444 
L 647.16814 154.77271 
L 649.480934 153.219161 
L 654.106521 150.854998 
L 656.419315 148.669553 
L 658.732108 147.743799 
L 661.044902 147.804406 
L 663.357695 146.037511 
L 665.670489 145.145274 
L 667.983283 145.401003 
L 672.60887 144.312611 
L 674.921663 144.191992 
L 677.234457 142.991048 
L 679.547251 142.598736 
L 681.860044 142.490468 
L 684.172838 140.658348 
L 686.485631 140.775722 
L 688.798425 142.363251 
L 691.111219 140.92967 
L 693.424012 141.153548 
L 695.736806 141.214224 
L 698.049599 141.579859 
L 700.362393 142.087112 
L 704.98798 144.079392 
L 709.613567 145.158888 
L 711.926361 145.9424 
L 714.239154 147.01587 
L 716.551948 146.530623 
L 718.864742 145.797891 
L 721.177535 146.356588 
L 723.490329 145.746618 
L 725.803122 144.42744 
L 728.115916 145.007768 
L 730.42871 145.462225 
L 732.741503 146.599189 
L 735.054297 146.636587 
L 737.36709 146.254881 
L 739.679884 146.701702 
L 741.992678 146.417191 
L 744.305471 145.573776 
L 748.931058 142.495467 
L 751.243852 141.80836 
L 753.556645 141.568621 
L 755.869439 140.940286 
L 758.182233 133.114159 
L 760.495026 133.527742 
L 762.80782 132.712882 
L 765.120613 132.436749 
L 767.433407 131.902782 
L 769.746201 130.561983 
L 772.058994 129.697674 
L 774.371788 130.20421 
L 776.684581 130.575147 
L 781.310169 130.93832 
L 785.935756 130.340878 
L 788.248549 131.036563 
L 790.561343 131.124616 
L 792.874137 130.667831 
L 795.18693 131.432262 
L 797.499724 132.620863 
L 799.812517 133.477207 
L 802.125311 134.187844 
L 806.750898 137.808491 
L 809.063692 140.080505 
L 811.376485 140.709885 
L 813.689279 142.485452 
L 816.002072 143.209701 
L 818.314866 144.975845 
L 820.62766 146.205953 
L 822.940453 149.592872 
L 825.253247 150.987555 
L 827.56604 151.994793 
L 829.878834 151.586623 
L 832.191628 152.259391 
L 834.504421 151.750213 
L 836.817215 150.522539 
L 839.130008 148.771535 
L 841.442802 146.174703 
L 843.755595 144.84348 
L 846.068389 143.119252 
L 848.381183 143.150958 
L 853.00677 142.945811 
L 855.319563 145.735268 
L 857.632357 147.520844 
L 859.945151 147.760416 
L 862.257944 148.314297 
L 864.570738 146.964471 
L 866.883531 147.339159 
L 869.196325 144.43153 
L 871.509119 142.445023 
L 873.821912 139.463325 
L 878.447499 138.878512 
L 880.760293 140.117028 
L 883.073086 140.315312 
L 887.698674 142.76001 
L 890.011467 143.321868 
L 892.324261 144.573823 
L 894.637054 144.997061 
L 896.949848 145.828329 
L 899.262642 147.179192 
L 901.575435 147.679168 
L 903.888229 149.256198 
L 906.201022 150.36914 
L 908.513816 150.557017 
L 910.82661 151.500002 
L 913.139403 152.095697 
L 915.452197 153.435915 
L 917.76499 156.745875 
L 920.077784 158.657645 
L 922.390578 157.533246 
L 924.703371 158.777629 
L 927.016165 158.729182 
L 929.328958 158.820167 
L 931.641752 157.852366 
L 933.954545 157.595326 
L 933.954545 157.595326 
" clip-path="url(#p9b02245c59)" style="fill: none; stroke: #9467bd; stroke-width: 2; stroke-linecap: square"/>
   </g>
   <g id="line2d_32">
    <path d="M 173.045455 314.679587 
L 175.358248 313.584006 
L 177.671042 312.831789 
L 179.983835 311.714807 
L 182.296629 310.089206 
L 184.609422 310.014646 
L 186.922216 307.841803 
L 189.23501 307.315177 
L 191.547803 306.60923 
L 193.860597 304.542748 
L 196.17339 302.048024 
L 198.486184 296.503205 
L 200.798978 292.88515 
L 203.111771 290.864684 
L 205.424565 285.867914 
L 207.737358 281.189844 
L 210.050152 279.71028 
L 212.362946 277.909413 
L 214.675739 275.496185 
L 216.988533 276.455822 
L 219.301326 278.282933 
L 221.61412 278.874428 
L 223.926914 281.068717 
L 226.239707 282.843457 
L 228.552501 283.488709 
L 230.865294 284.343311 
L 233.178088 285.681196 
L 235.490881 283.252146 
L 237.803675 282.249129 
L 242.429262 279.308654 
L 244.742056 278.921643 
L 247.054849 280.267748 
L 249.367643 277.536325 
L 251.680437 278.558057 
L 253.99323 278.290376 
L 256.306024 277.674424 
L 258.618817 276.026477 
L 260.931611 277.196144 
L 263.244405 275.263953 
L 265.557198 275.391481 
L 267.869992 275.180336 
L 270.182785 276.333898 
L 272.495579 274.520269 
L 274.808372 274.148945 
L 277.121166 275.051705 
L 279.43396 276.541969 
L 281.746753 273.099824 
L 284.059547 272.326936 
L 286.37234 271.805387 
L 288.685134 268.531589 
L 290.997928 266.357322 
L 293.310721 265.550041 
L 295.623515 262.878495 
L 300.249102 258.014909 
L 302.561896 257.185209 
L 304.874689 255.720354 
L 307.187483 255.48173 
L 309.500276 257.250042 
L 311.81307 260.927821 
L 314.125863 263.377091 
L 316.438657 263.821523 
L 318.751451 263.701373 
L 321.064244 266.480304 
L 323.377038 267.28758 
L 325.689831 266.994394 
L 328.002625 267.664183 
L 330.315419 267.564874 
L 332.628212 267.893252 
L 334.941006 268.465842 
L 337.253799 270.375762 
L 339.566593 271.327213 
L 341.879387 271.56903 
L 344.19218 270.65051 
L 346.504974 269.556915 
L 348.817767 269.815649 
L 351.130561 270.645439 
L 353.443355 272.535414 
L 355.756148 273.493011 
L 358.068942 274.837331 
L 360.381735 275.02772 
L 362.694529 273.698441 
L 365.007322 273.434295 
L 367.320116 274.254949 
L 369.63291 274.262196 
L 371.945703 275.820266 
L 374.258497 277.581417 
L 376.57129 277.946545 
L 378.884084 277.90603 
L 381.196878 278.248523 
L 383.509671 278.917043 
L 385.822465 280.773173 
L 390.448052 285.33153 
L 392.760846 286.785905 
L 395.073639 287.914637 
L 397.386433 288.388921 
L 399.699226 288.390798 
L 404.324813 287.059616 
L 406.637607 286.986653 
L 408.950401 287.315019 
L 411.263194 286.900677 
L 413.575988 287.453957 
L 415.888781 287.812709 
L 418.201575 289.014065 
L 420.514369 287.884925 
L 422.827162 288.180972 
L 425.139956 287.022978 
L 427.452749 286.376164 
L 429.765543 287.134585 
L 432.078337 286.241453 
L 434.39113 286.46436 
L 436.703924 287.775056 
L 439.016717 287.846096 
L 441.329511 288.923824 
L 443.642305 291.315241 
L 445.955098 292.254526 
L 448.267892 292.721889 
L 450.580685 293.755777 
L 452.893479 292.076507 
L 455.206272 291.451555 
L 457.519066 290.514061 
L 459.83186 289.782933 
L 462.144653 290.081878 
L 464.457447 290.698928 
L 466.77024 290.303833 
L 469.083034 292.283839 
L 471.395828 294.553769 
L 473.708621 296.108975 
L 476.021415 295.279102 
L 478.334208 295.836114 
L 480.647002 295.055093 
L 482.959796 294.814971 
L 485.272589 291.733576 
L 487.585383 290.826546 
L 492.21097 292.784555 
L 494.523763 292.458447 
L 496.836557 290.8844 
L 499.149351 289.020167 
L 501.462144 284.678922 
L 503.774938 280.032939 
L 506.087731 276.959529 
L 508.400525 275.168808 
L 510.713319 271.659253 
L 513.026112 268.485753 
L 515.338906 264.930511 
L 517.651699 262.476784 
L 519.964493 258.80712 
L 522.277287 255.435491 
L 524.59008 253.203292 
L 526.902874 250.768378 
L 529.215667 249.368285 
L 531.528461 248.455871 
L 538.466842 246.631442 
L 540.779635 244.275445 
L 543.092429 243.505295 
L 545.405222 242.990741 
L 547.718016 240.477286 
L 550.03081 239.790625 
L 552.343603 237.928013 
L 554.656397 239.357708 
L 556.96919 237.819395 
L 559.281984 236.94055 
L 561.594778 235.397758 
L 563.907571 234.311787 
L 566.220365 231.374813 
L 570.845952 226.936327 
L 573.158746 226.312304 
L 575.471539 223.177736 
L 577.784333 219.587124 
L 580.097126 217.652963 
L 582.40992 214.754238 
L 584.722713 212.050938 
L 587.035507 210.679646 
L 589.348301 208.188362 
L 593.973888 205.1276 
L 603.225062 203.009119 
L 605.537856 203.673252 
L 607.850649 202.946356 
L 610.163443 202.929289 
L 612.476237 202.607677 
L 614.78903 202.539103 
L 617.101824 202.198322 
L 619.414617 201.731696 
L 621.727411 202.304375 
L 626.352998 201.932493 
L 628.665792 201.430916 
L 630.978585 200.558839 
L 633.291379 197.842714 
L 635.604172 196.574393 
L 637.916966 195.560691 
L 640.22976 192.794211 
L 647.16814 186.120312 
L 649.480934 184.13498 
L 651.793728 181.374756 
L 654.106521 179.64217 
L 656.419315 177.120447 
L 658.732108 174.970025 
L 661.044902 173.211212 
L 663.357695 170.299411 
L 665.670489 169.127159 
L 667.983283 168.615287 
L 670.296076 169.231928 
L 672.60887 169.231114 
L 674.921663 166.037782 
L 677.234457 166.259175 
L 679.547251 165.077474 
L 681.860044 164.656137 
L 684.172838 164.596622 
L 686.485631 164.682446 
L 688.798425 162.912797 
L 691.111219 162.245863 
L 693.424012 160.921368 
L 695.736806 160.323427 
L 698.049599 159.273762 
L 700.362393 158.774535 
L 702.675187 154.230633 
L 704.98798 153.357234 
L 707.300774 151.34337 
L 709.613567 150.702194 
L 711.926361 149.570318 
L 714.239154 149.020847 
L 718.864742 148.747483 
L 721.177535 148.088125 
L 723.490329 146.929059 
L 725.803122 148.098695 
L 730.42871 149.607011 
L 732.741503 150.2636 
L 735.054297 150.563599 
L 737.36709 151.561431 
L 739.679884 151.593755 
L 741.992678 152.071362 
L 746.618265 150.570261 
L 748.931058 149.491082 
L 751.243852 150.485955 
L 753.556645 150.080867 
L 755.869439 150.802664 
L 758.182233 148.303569 
L 760.495026 147.07676 
L 762.80782 145.048992 
L 765.120613 142.215651 
L 767.433407 141.299636 
L 769.746201 140.891644 
L 774.371788 142.339562 
L 776.684581 142.396821 
L 778.997375 141.035717 
L 781.310169 141.835679 
L 783.622962 142.108248 
L 785.935756 142.82668 
L 788.248549 142.684283 
L 790.561343 143.185519 
L 792.874137 144.457074 
L 795.18693 144.517653 
L 797.499724 146.244012 
L 802.125311 148.490936 
L 804.438104 150.179467 
L 806.750898 151.421731 
L 809.063692 153.461695 
L 811.376485 154.783925 
L 813.689279 154.938185 
L 816.002072 155.261534 
L 818.314866 155.162239 
L 820.62766 155.331072 
L 825.253247 154.711893 
L 827.56604 154.387193 
L 829.878834 153.886488 
L 832.191628 153.130207 
L 834.504421 152.756809 
L 836.817215 151.489822 
L 839.130008 151.682966 
L 841.442802 151.163337 
L 843.755595 150.324117 
L 846.068389 148.970924 
L 848.381183 146.566926 
L 850.693976 145.880094 
L 853.00677 144.888412 
L 855.319563 144.363759 
L 857.632357 142.989657 
L 859.945151 143.811412 
L 866.883531 142.671551 
L 869.196325 142.674395 
L 871.509119 143.272708 
L 873.821912 145.385557 
L 876.134706 145.062802 
L 878.447499 146.038043 
L 883.073086 146.988972 
L 885.38588 146.87873 
L 887.698674 148.45217 
L 890.011467 147.815825 
L 892.324261 148.374187 
L 894.637054 150.944889 
L 896.949848 151.320654 
L 899.262642 152.121999 
L 903.888229 152.942351 
L 906.201022 153.721219 
L 908.513816 153.91549 
L 910.82661 154.647311 
L 913.139403 154.189716 
L 915.452197 153.283229 
L 917.76499 153.411992 
L 920.077784 152.132514 
L 922.390578 149.324852 
L 924.703371 148.62908 
L 927.016165 148.308178 
L 929.328958 147.791032 
L 931.641752 147.690139 
L 933.954545 146.082242 
L 933.954545 146.082242 
" clip-path="url(#p9b02245c59)" style="fill: none; stroke: #8c564b; stroke-width: 2; stroke-linecap: square"/>
   </g>
   <g id="patch_3">
    <path d="M 135 317.106383 
L 135 72 
" style="fill: none; stroke: #000000; stroke-width: 0.8; stroke-linejoin: miter; stroke-linecap: square"/>
   </g>
   <g id="patch_4">
    <path d="M 972 317.106383 
L 972 72 
" style="fill: none; stroke: #000000; stroke-width: 0.8; stroke-linejoin: miter; stroke-linecap: square"/>
   </g>
   <g id="patch_5">
    <path d="M 135 317.106383 
L 972 317.106383 
" style="fill: none; stroke: #000000; stroke-width: 0.8; stroke-linejoin: miter; stroke-linecap: square"/>
   </g>
   <g id="patch_6">
    <path d="M 135 72 
L 972 72 
" style="fill: none; stroke: #000000; stroke-width: 0.8; stroke-linejoin: miter; stroke-linecap: square"/>
   </g>
   <g id="text_16">
    <!-- YCB-V -->
    <g transform="translate(523.65225 66) scale(0.204 -0.204)">
     <defs>
      <path id="DejaVuSans-59" d="M -13 4666 
L 666 4666 
L 1959 2747 
L 3244 4666 
L 3922 4666 
L 2272 2222 
L 2272 0 
L 1638 0 
L 1638 2222 
L -13 4666 
z
" transform="scale(0.015625)"/>
      <path id="DejaVuSans-43" d="M 4122 4306 
L 4122 3641 
Q 3803 3938 3442 4084 
Q 3081 4231 2675 4231 
Q 1875 4231 1450 3742 
Q 1025 3253 1025 2328 
Q 1025 1406 1450 917 
Q 1875 428 2675 428 
Q 3081 428 3442 575 
Q 3803 722 4122 1019 
L 4122 359 
Q 3791 134 3420 21 
Q 3050 -91 2638 -91 
Q 1578 -91 968 557 
Q 359 1206 359 2328 
Q 359 3453 968 4101 
Q 1578 4750 2638 4750 
Q 3056 4750 3426 4639 
Q 3797 4528 4122 4306 
z
" transform="scale(0.015625)"/>
      <path id="DejaVuSans-42" d="M 1259 2228 
L 1259 519 
L 2272 519 
Q 2781 519 3026 730 
Q 3272 941 3272 1375 
Q 3272 1813 3026 2020 
Q 2781 2228 2272 2228 
L 1259 2228 
z
M 1259 4147 
L 1259 2741 
L 2194 2741 
Q 2656 2741 2882 2914 
Q 3109 3088 3109 3444 
Q 3109 3797 2882 3972 
Q 2656 4147 2194 4147 
L 1259 4147 
z
M 628 4666 
L 2241 4666 
Q 2963 4666 3353 4366 
Q 3744 4066 3744 3513 
Q 3744 3084 3544 2831 
Q 3344 2578 2956 2516 
Q 3422 2416 3680 2098 
Q 3938 1781 3938 1306 
Q 3938 681 3513 340 
Q 3088 0 2303 0 
L 628 0 
L 628 4666 
z
" transform="scale(0.015625)"/>
      <path id="DejaVuSans-2d" d="M 313 2009 
L 1997 2009 
L 1997 1497 
L 313 1497 
L 313 2009 
z
" transform="scale(0.015625)"/>
      <path id="DejaVuSans-56" d="M 1831 0 
L 50 4666 
L 709 4666 
L 2188 738 
L 3669 4666 
L 4325 4666 
L 2547 0 
L 1831 0 
z
" transform="scale(0.015625)"/>
     </defs>
     <use xlink:href="#DejaVuSans-59"/>
     <use xlink:href="#DejaVuSans-43" x="55.583984"/>
     <use xlink:href="#DejaVuSans-42" x="125.408203"/>
     <use xlink:href="#DejaVuSans-2d" x="194.011719"/>
     <use xlink:href="#DejaVuSans-56" x="224.220703"/>
    </g>
   </g>
  </g>
  <g id="axes_2">
   <g id="patch_7">
    <path d="M 135 648 
L 972 648 
L 972 402.893617 
L 135 402.893617 
z
" style="fill: #ffffff"/>
   </g>
   <g id="matplotlib.axis_3">
    <g id="xtick_8">
     <g id="line2d_33">
      <path d="M 173.045455 648 
L 173.045455 402.893617 
" clip-path="url(#p2cd0cd58f1)" style="fill: none; stroke: #b0b0b0; stroke-width: 0.8; stroke-linecap: square"/>
     </g>
     <g id="line2d_34">
      <g>
       <use xlink:href="#m1a3b853ad2" x="173.045455" y="648" style="stroke: #000000; stroke-width: 0.8"/>
      </g>
     </g>
     <g id="text_17">
      <!-- 0 -->
      <g transform="translate(169.864205 662.598438) scale(0.1 -0.1)">
       <use xlink:href="#DejaVuSans-30"/>
      </g>
     </g>
    </g>
    <g id="xtick_9">
     <g id="line2d_35">
      <path d="M 288.685134 648 
L 288.685134 402.893617 
" clip-path="url(#p2cd0cd58f1)" style="fill: none; stroke: #b0b0b0; stroke-width: 0.8; stroke-linecap: square"/>
     </g>
     <g id="line2d_36">
      <g>
       <use xlink:href="#m1a3b853ad2" x="288.685134" y="648" style="stroke: #000000; stroke-width: 0.8"/>
      </g>
     </g>
     <g id="text_18">
      <!-- 50 -->
      <g transform="translate(282.322634 662.598438) scale(0.1 -0.1)">
       <use xlink:href="#DejaVuSans-35"/>
       <use xlink:href="#DejaVuSans-30" x="63.623047"/>
      </g>
     </g>
    </g>
    <g id="xtick_10">
     <g id="line2d_37">
      <path d="M 404.324813 648 
L 404.324813 402.893617 
" clip-path="url(#p2cd0cd58f1)" style="fill: none; stroke: #b0b0b0; stroke-width: 0.8; stroke-linecap: square"/>
     </g>
     <g id="line2d_38">
      <g>
       <use xlink:href="#m1a3b853ad2" x="404.324813" y="648" style="stroke: #000000; stroke-width: 0.8"/>
      </g>
     </g>
     <g id="text_19">
      <!-- 100 -->
      <g transform="translate(394.781063 662.598438) scale(0.1 -0.1)">
       <use xlink:href="#DejaVuSans-31"/>
       <use xlink:href="#DejaVuSans-30" x="63.623047"/>
       <use xlink:href="#DejaVuSans-30" x="127.246094"/>
      </g>
     </g>
    </g>
    <g id="xtick_11">
     <g id="line2d_39">
      <path d="M 519.964493 648 
L 519.964493 402.893617 
" clip-path="url(#p2cd0cd58f1)" style="fill: none; stroke: #b0b0b0; stroke-width: 0.8; stroke-linecap: square"/>
     </g>
     <g id="line2d_40">
      <g>
       <use xlink:href="#m1a3b853ad2" x="519.964493" y="648" style="stroke: #000000; stroke-width: 0.8"/>
      </g>
     </g>
     <g id="text_20">
      <!-- 150 -->
      <g transform="translate(510.420743 662.598438) scale(0.1 -0.1)">
       <use xlink:href="#DejaVuSans-31"/>
       <use xlink:href="#DejaVuSans-35" x="63.623047"/>
       <use xlink:href="#DejaVuSans-30" x="127.246094"/>
      </g>
     </g>
    </g>
    <g id="xtick_12">
     <g id="line2d_41">
      <path d="M 635.604172 648 
L 635.604172 402.893617 
" clip-path="url(#p2cd0cd58f1)" style="fill: none; stroke: #b0b0b0; stroke-width: 0.8; stroke-linecap: square"/>
     </g>
     <g id="line2d_42">
      <g>
       <use xlink:href="#m1a3b853ad2" x="635.604172" y="648" style="stroke: #000000; stroke-width: 0.8"/>
      </g>
     </g>
     <g id="text_21">
      <!-- 200 -->
      <g transform="translate(626.060422 662.598438) scale(0.1 -0.1)">
       <use xlink:href="#DejaVuSans-32"/>
       <use xlink:href="#DejaVuSans-30" x="63.623047"/>
       <use xlink:href="#DejaVuSans-30" x="127.246094"/>
      </g>
     </g>
    </g>
    <g id="xtick_13">
     <g id="line2d_43">
      <path d="M 751.243852 648 
L 751.243852 402.893617 
" clip-path="url(#p2cd0cd58f1)" style="fill: none; stroke: #b0b0b0; stroke-width: 0.8; stroke-linecap: square"/>
     </g>
     <g id="line2d_44">
      <g>
       <use xlink:href="#m1a3b853ad2" x="751.243852" y="648" style="stroke: #000000; stroke-width: 0.8"/>
      </g>
     </g>
     <g id="text_22">
      <!-- 250 -->
      <g transform="translate(741.700102 662.598438) scale(0.1 -0.1)">
       <use xlink:href="#DejaVuSans-32"/>
       <use xlink:href="#DejaVuSans-35" x="63.623047"/>
       <use xlink:href="#DejaVuSans-30" x="127.246094"/>
      </g>
     </g>
    </g>
    <g id="xtick_14">
     <g id="line2d_45">
      <path d="M 866.883531 648 
L 866.883531 402.893617 
" clip-path="url(#p2cd0cd58f1)" style="fill: none; stroke: #b0b0b0; stroke-width: 0.8; stroke-linecap: square"/>
     </g>
     <g id="line2d_46">
      <g>
       <use xlink:href="#m1a3b853ad2" x="866.883531" y="648" style="stroke: #000000; stroke-width: 0.8"/>
      </g>
     </g>
     <g id="text_23">
      <!-- 300 -->
      <g transform="translate(857.339781 662.598438) scale(0.1 -0.1)">
       <use xlink:href="#DejaVuSans-33"/>
       <use xlink:href="#DejaVuSans-30" x="63.623047"/>
       <use xlink:href="#DejaVuSans-30" x="127.246094"/>
      </g>
     </g>
    </g>
    <g id="text_24">
     <!-- frame -->
     <g transform="translate(528.294844 681.595469) scale(0.17 -0.17)">
      <use xlink:href="#DejaVuSans-66"/>
      <use xlink:href="#DejaVuSans-72" x="35.205078"/>
      <use xlink:href="#DejaVuSans-61" x="76.318359"/>
      <use xlink:href="#DejaVuSans-6d" x="137.597656"/>
      <use xlink:href="#DejaVuSans-65" x="235.009766"/>
     </g>
    </g>
   </g>
   <g id="matplotlib.axis_4">
    <g id="ytick_7">
     <g id="line2d_47">
      <path d="M 135 645.573204 
L 972 645.573204 
" clip-path="url(#p2cd0cd58f1)" style="fill: none; stroke: #b0b0b0; stroke-width: 0.8; stroke-linecap: square"/>
     </g>
     <g id="line2d_48">
      <g>
       <use xlink:href="#m599a484e78" x="135" y="645.573204" style="stroke: #000000; stroke-width: 0.8"/>
      </g>
     </g>
     <g id="text_25">
      <!-- 0 -->
      <g transform="translate(121.6375 649.372423) scale(0.1 -0.1)">
       <use xlink:href="#DejaVuSans-30"/>
      </g>
     </g>
    </g>
    <g id="ytick_8">
     <g id="line2d_49">
      <path d="M 135 597.037287 
L 972 597.037287 
" clip-path="url(#p2cd0cd58f1)" style="fill: none; stroke: #b0b0b0; stroke-width: 0.8; stroke-linecap: square"/>
     </g>
     <g id="line2d_50">
      <g>
       <use xlink:href="#m599a484e78" x="135" y="597.037287" style="stroke: #000000; stroke-width: 0.8"/>
      </g>
     </g>
     <g id="text_26">
      <!-- 2 -->
      <g transform="translate(121.6375 600.836505) scale(0.1 -0.1)">
       <use xlink:href="#DejaVuSans-32"/>
      </g>
     </g>
    </g>
    <g id="ytick_9">
     <g id="line2d_51">
      <path d="M 135 548.501369 
L 972 548.501369 
" clip-path="url(#p2cd0cd58f1)" style="fill: none; stroke: #b0b0b0; stroke-width: 0.8; stroke-linecap: square"/>
     </g>
     <g id="line2d_52">
      <g>
       <use xlink:href="#m599a484e78" x="135" y="548.501369" style="stroke: #000000; stroke-width: 0.8"/>
      </g>
     </g>
     <g id="text_27">
      <!-- 4 -->
      <g transform="translate(121.6375 552.300588) scale(0.1 -0.1)">
       <use xlink:href="#DejaVuSans-34"/>
      </g>
     </g>
    </g>
    <g id="ytick_10">
     <g id="line2d_53">
      <path d="M 135 499.965452 
L 972 499.965452 
" clip-path="url(#p2cd0cd58f1)" style="fill: none; stroke: #b0b0b0; stroke-width: 0.8; stroke-linecap: square"/>
     </g>
     <g id="line2d_54">
      <g>
       <use xlink:href="#m599a484e78" x="135" y="499.965452" style="stroke: #000000; stroke-width: 0.8"/>
      </g>
     </g>
     <g id="text_28">
      <!-- 6 -->
      <g transform="translate(121.6375 503.764671) scale(0.1 -0.1)">
       <use xlink:href="#DejaVuSans-36"/>
      </g>
     </g>
    </g>
    <g id="ytick_11">
     <g id="line2d_55">
      <path d="M 135 451.429534 
L 972 451.429534 
" clip-path="url(#p2cd0cd58f1)" style="fill: none; stroke: #b0b0b0; stroke-width: 0.8; stroke-linecap: square"/>
     </g>
     <g id="line2d_56">
      <g>
       <use xlink:href="#m599a484e78" x="135" y="451.429534" style="stroke: #000000; stroke-width: 0.8"/>
      </g>
     </g>
     <g id="text_29">
      <!-- 8 -->
      <g transform="translate(121.6375 455.228753) scale(0.1 -0.1)">
       <use xlink:href="#DejaVuSans-38"/>
      </g>
     </g>
    </g>
    <g id="ytick_12">
     <g id="line2d_57">
      <path d="M 135 402.893617 
L 972 402.893617 
" clip-path="url(#p2cd0cd58f1)" style="fill: none; stroke: #b0b0b0; stroke-width: 0.8; stroke-linecap: square"/>
     </g>
     <g id="line2d_58">
      <g>
       <use xlink:href="#m599a484e78" x="135" y="402.893617" style="stroke: #000000; stroke-width: 0.8"/>
      </g>
     </g>
     <g id="text_30">
      <!-- 10 -->
      <g transform="translate(115.275 406.692836) scale(0.1 -0.1)">
       <use xlink:href="#DejaVuSans-31"/>
       <use xlink:href="#DejaVuSans-30" x="63.623047"/>
      </g>
     </g>
    </g>
    <g id="text_31">
     <!-- $|\bf t|$ [mm] -->
     <g transform="translate(107.195 561.401809) rotate(-90) scale(0.17 -0.17)">
      <use xlink:href="#DejaVuSans-7c" transform="translate(0 0.578125)"/>
      <use xlink:href="#DejaVuSans-Bold-74" transform="translate(33.691406 0.578125)"/>
      <use xlink:href="#DejaVuSans-Bold-7c" transform="translate(81.494141 0.578125)"/>
      <use xlink:href="#DejaVuSans-20" transform="translate(118.017578 0.578125)"/>
      <use xlink:href="#DejaVuSans-5b" transform="translate(149.804688 0.578125)"/>
      <use xlink:href="#DejaVuSans-6d" transform="translate(188.818359 0.578125)"/>
      <use xlink:href="#DejaVuSans-6d" transform="translate(286.230469 0.578125)"/>
      <use xlink:href="#DejaVuSans-5d" transform="translate(383.642578 0.578125)"/>
     </g>
    </g>
   </g>
   <g id="line2d_59">
    <path d="M 173.045455 645.573204 
L 274.808372 645.570628 
L 933.954545 645.572028 
L 933.954545 645.572028 
" clip-path="url(#p2cd0cd58f1)" style="fill: none; stroke: #1f77b4; stroke-width: 7; stroke-linecap: square"/>
   </g>
   <g id="line2d_60">
    <path d="M 173.045455 645.573204 
L 617.101824 645.571746 
L 802.125311 645.571785 
L 802.125311 645.571785 
" clip-path="url(#p2cd0cd58f1)" style="fill: none; stroke: #ff7f0e; stroke-width: 6; stroke-linecap: square"/>
   </g>
   <g id="line2d_61">
    <path d="M 173.045455 645.573204 
L 480.647002 645.571999 
L 506.087731 645.570902 
L 506.087731 645.570902 
" clip-path="url(#p2cd0cd58f1)" style="fill: none; stroke: #2ca02c; stroke-width: 5; stroke-linecap: square"/>
   </g>
   <g id="line2d_62">
    <path d="M 173.045455 645.573204 
L 519.964493 645.572311 
L 519.964493 645.572311 
" clip-path="url(#p2cd0cd58f1)" style="fill: none; stroke: #d62728; stroke-width: 4; stroke-linecap: square"/>
   </g>
   <g id="line2d_63">
    <path d="M 173.045455 645.573204 
L 411.263194 645.572904 
L 561.594778 645.572751 
L 561.594778 645.572751 
" clip-path="url(#p2cd0cd58f1)" style="fill: none; stroke: #9467bd; stroke-width: 3; stroke-linecap: square"/>
   </g>
   <g id="line2d_64">
    <path d="M 173.045455 645.573204 
L 378.884084 645.571434 
L 566.220365 645.571719 
L 566.220365 645.571719 
" clip-path="url(#p2cd0cd58f1)" style="fill: none; stroke: #8c564b; stroke-width: 2; stroke-linecap: square"/>
   </g>
   <g id="patch_8">
    <path d="M 135 648 
L 135 402.893617 
" style="fill: none; stroke: #000000; stroke-width: 0.8; stroke-linejoin: miter; stroke-linecap: square"/>
   </g>
   <g id="patch_9">
    <path d="M 972 648 
L 972 402.893617 
" style="fill: none; stroke: #000000; stroke-width: 0.8; stroke-linejoin: miter; stroke-linecap: square"/>
   </g>
   <g id="patch_10">
    <path d="M 135 648 
L 972 648 
" style="fill: none; stroke: #000000; stroke-width: 0.8; stroke-linejoin: miter; stroke-linecap: square"/>
   </g>
   <g id="patch_11">
    <path d="M 135 402.893617 
L 972 402.893617 
" style="fill: none; stroke: #000000; stroke-width: 0.8; stroke-linejoin: miter; stroke-linecap: square"/>
   </g>
   <g id="text_32">
    <!-- HOPE-Video -->
    <g transform="translate(493.5495 396.893617) scale(0.204 -0.204)">
     <defs>
      <path id="DejaVuSans-48" d="M 628 4666 
L 1259 4666 
L 1259 2753 
L 3553 2753 
L 3553 4666 
L 4184 4666 
L 4184 0 
L 3553 0 
L 3553 2222 
L 1259 2222 
L 1259 0 
L 628 0 
L 628 4666 
z
" transform="scale(0.015625)"/>
      <path id="DejaVuSans-4f" d="M 2522 4238 
Q 1834 4238 1429 3725 
Q 1025 3213 1025 2328 
Q 1025 1447 1429 934 
Q 1834 422 2522 422 
Q 3209 422 3611 934 
Q 4013 1447 4013 2328 
Q 4013 3213 3611 3725 
Q 3209 4238 2522 4238 
z
M 2522 4750 
Q 3503 4750 4090 4092 
Q 4678 3434 4678 2328 
Q 4678 1225 4090 567 
Q 3503 -91 2522 -91 
Q 1538 -91 948 565 
Q 359 1222 359 2328 
Q 359 3434 948 4092 
Q 1538 4750 2522 4750 
z
" transform="scale(0.015625)"/>
      <path id="DejaVuSans-50" d="M 1259 4147 
L 1259 2394 
L 2053 2394 
Q 2494 2394 2734 2622 
Q 2975 2850 2975 3272 
Q 2975 3691 2734 3919 
Q 2494 4147 2053 4147 
L 1259 4147 
z
M 628 4666 
L 2053 4666 
Q 2838 4666 3239 4311 
Q 3641 3956 3641 3272 
Q 3641 2581 3239 2228 
Q 2838 1875 2053 1875 
L 1259 1875 
L 1259 0 
L 628 0 
L 628 4666 
z
" transform="scale(0.015625)"/>
      <path id="DejaVuSans-45" d="M 628 4666 
L 3578 4666 
L 3578 4134 
L 1259 4134 
L 1259 2753 
L 3481 2753 
L 3481 2222 
L 1259 2222 
L 1259 531 
L 3634 531 
L 3634 0 
L 628 0 
L 628 4666 
z
" transform="scale(0.015625)"/>
      <path id="DejaVuSans-69" d="M 603 3500 
L 1178 3500 
L 1178 0 
L 603 0 
L 603 3500 
z
M 603 4863 
L 1178 4863 
L 1178 4134 
L 603 4134 
L 603 4863 
z
" transform="scale(0.015625)"/>
      <path id="DejaVuSans-64" d="M 2906 2969 
L 2906 4863 
L 3481 4863 
L 3481 0 
L 2906 0 
L 2906 525 
Q 2725 213 2448 61 
Q 2172 -91 1784 -91 
Q 1150 -91 751 415 
Q 353 922 353 1747 
Q 353 2572 751 3078 
Q 1150 3584 1784 3584 
Q 2172 3584 2448 3432 
Q 2725 3281 2906 2969 
z
M 947 1747 
Q 947 1113 1208 752 
Q 1469 391 1925 391 
Q 2381 391 2643 752 
Q 2906 1113 2906 1747 
Q 2906 2381 2643 2742 
Q 2381 3103 1925 3103 
Q 1469 3103 1208 2742 
Q 947 2381 947 1747 
z
" transform="scale(0.015625)"/>
      <path id="DejaVuSans-6f" d="M 1959 3097 
Q 1497 3097 1228 2736 
Q 959 2375 959 1747 
Q 959 1119 1226 758 
Q 1494 397 1959 397 
Q 2419 397 2687 759 
Q 2956 1122 2956 1747 
Q 2956 2369 2687 2733 
Q 2419 3097 1959 3097 
z
M 1959 3584 
Q 2709 3584 3137 3096 
Q 3566 2609 3566 1747 
Q 3566 888 3137 398 
Q 2709 -91 1959 -91 
Q 1206 -91 779 398 
Q 353 888 353 1747 
Q 353 2609 779 3096 
Q 1206 3584 1959 3584 
z
" transform="scale(0.015625)"/>
     </defs>
     <use xlink:href="#DejaVuSans-48"/>
     <use xlink:href="#DejaVuSans-4f" x="75.195312"/>
     <use xlink:href="#DejaVuSans-50" x="153.90625"/>
     <use xlink:href="#DejaVuSans-45" x="214.208984"/>
     <use xlink:href="#DejaVuSans-2d" x="277.392578"/>
     <use xlink:href="#DejaVuSans-56" x="307.601562"/>
     <use xlink:href="#DejaVuSans-69" x="373.759766"/>
     <use xlink:href="#DejaVuSans-64" x="401.542969"/>
     <use xlink:href="#DejaVuSans-65" x="465.019531"/>
     <use xlink:href="#DejaVuSans-6f" x="526.542969"/>
    </g>
   </g>
  </g>
 </g>
 <defs>
  <clipPath id="p9b02245c59">
   <rect x="135" y="72" width="837" height="245.106383"/>
  </clipPath>
  <clipPath id="p2cd0cd58f1">
   <rect x="135" y="402.893617" width="837" height="245.106383"/>
  </clipPath>
 </defs>
</svg>
